<?xml version="1.0" encoding="us-ascii" standalone="no"?><svg xmlns="http://www.w3.org/2000/svg" xmlns:xlink="http://www.w3.org/1999/xlink" contentStyleType="text/css" height="1106px" preserveAspectRatio="none" style="width:1187px;height:1106px;background:#FFFFFF;" version="1.1" viewBox="0 0 1187 1106" width="1187px" zoomAndPan="magnify"><defs/><g><rect fill="#FFFFFF" height="917.2969" style="stroke:#181818;stroke-width:1.0;" width="10" x="69.5" y="90.6406"/><rect fill="#FFFFFF" height="69.1641" style="stroke:#181818;stroke-width:1.0;" width="10" x="413.5" y="111.1641"/><rect fill="#FFFFFF" height="100.0469" style="stroke:#181818;stroke-width:1.0;" width="10" x="413.5" y="208.8516"/><rect fill="#FFFFFF" height="28" style="stroke:#181818;stroke-width:1.0;" width="10" x="418.5" y="245.375"/><rect fill="#FFFFFF" height="484.8984" style="stroke:#181818;stroke-width:1.0;" width="10" x="413.5" y="337.4219"/><rect fill="#FFFFFF" height="100.0469" style="stroke:#181818;stroke-width:1.0;" width="10" x="413.5" y="850.8438"/><rect fill="#FFFFFF" height="28" style="stroke:#181818;stroke-width:1.0;" width="10" x="418.5" y="887.3672"/><rect fill="#FFFFFF" height="37.5234" style="stroke:#181818;stroke-width:1.0;" width="10" x="413.5" y="979.4141"/><rect fill="#FFFFFF" height="199.6641" style="stroke:#181818;stroke-width:1.0;" width="10" x="730.5" y="365.9453"/><rect fill="#FFFFFF" height="199.6641" style="stroke:#181818;stroke-width:1.0;" width="10" x="730.5" y="594.1328"/><rect fill="#FFFFFF" height="28.5234" style="stroke:#181818;stroke-width:1.0;" width="10" x="879" y="394.4688"/><rect fill="#FFFFFF" height="28.5234" style="stroke:#181818;stroke-width:1.0;" width="10" x="879" y="622.6563"/><rect fill="#FFFFFF" height="28.5234" style="stroke:#181818;stroke-width:1.0;" width="10" x="986" y="451.5156"/><rect fill="#FFFFFF" height="28.5234" style="stroke:#181818;stroke-width:1.0;" width="10" x="986" y="679.7031"/><rect fill="#FFFFFF" height="28.5234" style="stroke:#181818;stroke-width:1.0;" width="10" x="1110.5" y="508.5625"/><rect fill="#FFFFFF" height="28.5234" style="stroke:#181818;stroke-width:1.0;" width="10" x="1110.5" y="736.75"/><line style="stroke:#181818;stroke-width:0.5;stroke-dasharray:5.0,5.0;" x1="74" x2="74" y1="80.6406" y2="1025.9375"/><line style="stroke:#181818;stroke-width:0.5;stroke-dasharray:5.0,5.0;" x1="418.5" x2="418.5" y1="80.6406" y2="1025.9375"/><line style="stroke:#181818;stroke-width:0.5;stroke-dasharray:5.0,5.0;" x1="735.5" x2="735.5" y1="149.4844" y2="1025.9375"/><line style="stroke:#181818;stroke-width:0.5;stroke-dasharray:5.0,5.0;" x1="883.5" x2="883.5" y1="80.6406" y2="1025.9375"/><line style="stroke:#181818;stroke-width:0.5;stroke-dasharray:5.0,5.0;" x1="990.5" x2="990.5" y1="80.6406" y2="1025.9375"/><line style="stroke:#181818;stroke-width:0.5;stroke-dasharray:5.0,5.0;" x1="1115.5" x2="1115.5" y1="80.6406" y2="1025.9375"/><text fill="#000000" font-family="sans-serif" font-size="14" lengthAdjust="spacing" textLength="133" x="5" y="77.6738">System Administrator</text><ellipse cx="74.5" cy="13.5" fill="#E3E3E3" rx="8" ry="8" style="stroke:#181818;stroke-width:0.5;"/><path d="M74.5,21.5 L74.5,48.5 M61.5,29.5 L87.5,29.5 M74.5,48.5 L61.5,63.5 M74.5,48.5 L87.5,63.5 " fill="none" style="stroke:#181818;stroke-width:0.5;"/><text fill="#000000" font-family="sans-serif" font-size="14" lengthAdjust="spacing" textLength="133" x="5" y="1037.6113">System Administrator</text><ellipse cx="74.5" cy="1049.0781" fill="#E3E3E3" rx="8" ry="8" style="stroke:#181818;stroke-width:0.5;"/><path d="M74.5,1057.0781 L74.5,1084.0781 M61.5,1065.0781 L87.5,1065.0781 M74.5,1084.0781 L61.5,1099.0781 M74.5,1084.0781 L87.5,1099.0781 " fill="none" style="stroke:#181818;stroke-width:0.5;"/><rect fill="#E3E3E3" height="29.6406" rx="2.5" ry="2.5" style="stroke:#181818;stroke-width:0.5;" width="130" x="353.5" y="50"/><text fill="#000000" font-family="sans-serif" font-size="14" lengthAdjust="spacing" textLength="116" x="360.5" y="69.6738">:SpecifyLocationUI</text><rect fill="#E3E3E3" height="29.6406" rx="2.5" ry="2.5" style="stroke:#181818;stroke-width:0.5;" width="130" x="353.5" y="1024.9375"/><text fill="#000000" font-family="sans-serif" font-size="14" lengthAdjust="spacing" textLength="116" x="360.5" y="1044.6113">:SpecifyLocationUI</text><rect fill="#E3E3E3" height="29.6406" rx="2.5" ry="2.5" style="stroke:#181818;stroke-width:0.5;" width="180" x="645.5" y="1024.9375"/><text fill="#000000" font-family="sans-serif" font-size="14" lengthAdjust="spacing" textLength="166" x="652.5" y="1044.6113">:SpecifyLocationController</text><rect fill="#E3E3E3" height="29.6406" rx="2.5" ry="2.5" style="stroke:#181818;stroke-width:0.5;" width="97" x="835.5" y="50"/><text fill="#000000" font-family="sans-serif" font-size="14" lengthAdjust="spacing" textLength="83" x="842.5" y="69.6738">:Repositories</text><rect fill="#E3E3E3" height="29.6406" rx="2.5" ry="2.5" style="stroke:#181818;stroke-width:0.5;" width="97" x="835.5" y="1024.9375"/><text fill="#000000" font-family="sans-serif" font-size="14" lengthAdjust="spacing" textLength="83" x="842.5" y="1044.6113">:Repositories</text><rect fill="#E3E3E3" height="45.2813" rx="2.5" ry="2.5" style="stroke:#181818;stroke-width:0.5;" width="97" x="942.5" y="34.3594"/><text fill="#000000" font-family="sans-serif" font-size="14" lengthAdjust="spacing" textLength="74" x="954" y="54.0332">repositories</text><text fill="#000000" font-family="sans-serif" font-size="14" lengthAdjust="spacing" textLength="83" x="949.5" y="69.6738">:Repositories</text><rect fill="#E3E3E3" height="45.2813" rx="2.5" ry="2.5" style="stroke:#181818;stroke-width:0.5;" width="97" x="942.5" y="1024.9375"/><text fill="#000000" font-family="sans-serif" font-size="14" lengthAdjust="spacing" textLength="74" x="954" y="1044.6113">repositories</text><text fill="#000000" font-family="sans-serif" font-size="14" lengthAdjust="spacing" textLength="83" x="949.5" y="1060.252">:Repositories</text><rect fill="#E3E3E3" height="45.2813" rx="2.5" ry="2.5" style="stroke:#181818;stroke-width:0.5;" width="132" x="1049.5" y="34.3594"/><text fill="#000000" font-family="sans-serif" font-size="14" lengthAdjust="spacing" textLength="118" x="1056.5" y="54.0332">agencyRepository:</text><text fill="#000000" font-family="sans-serif" font-size="14" lengthAdjust="spacing" textLength="115" x="1058" y="69.6738">AgencyRepository</text><rect fill="#E3E3E3" height="45.2813" rx="2.5" ry="2.5" style="stroke:#181818;stroke-width:0.5;" width="132" x="1049.5" y="1024.9375"/><text fill="#000000" font-family="sans-serif" font-size="14" lengthAdjust="spacing" textLength="118" x="1056.5" y="1044.6113">agencyRepository:</text><text fill="#000000" font-family="sans-serif" font-size="14" lengthAdjust="spacing" textLength="115" x="1058" y="1060.252">AgencyRepository</text><rect fill="#FFFFFF" height="917.2969" style="stroke:#181818;stroke-width:1.0;" width="10" x="69.5" y="90.6406"/><rect fill="#FFFFFF" height="69.1641" style="stroke:#181818;stroke-width:1.0;" width="10" x="413.5" y="111.1641"/><rect fill="#FFFFFF" height="100.0469" style="stroke:#181818;stroke-width:1.0;" width="10" x="413.5" y="208.8516"/><rect fill="#FFFFFF" height="28" style="stroke:#181818;stroke-width:1.0;" width="10" x="418.5" y="245.375"/><rect fill="#FFFFFF" height="484.8984" style="stroke:#181818;stroke-width:1.0;" width="10" x="413.5" y="337.4219"/><rect fill="#FFFFFF" height="100.0469" style="stroke:#181818;stroke-width:1.0;" width="10" x="413.5" y="850.8438"/><rect fill="#FFFFFF" height="28" style="stroke:#181818;stroke-width:1.0;" width="10" x="418.5" y="887.3672"/><rect fill="#FFFFFF" height="37.5234" style="stroke:#181818;stroke-width:1.0;" width="10" x="413.5" y="979.4141"/><rect fill="#FFFFFF" height="199.6641" style="stroke:#181818;stroke-width:1.0;" width="10" x="730.5" y="365.9453"/><rect fill="#FFFFFF" height="199.6641" style="stroke:#181818;stroke-width:1.0;" width="10" x="730.5" y="594.1328"/><rect fill="#FFFFFF" height="28.5234" style="stroke:#181818;stroke-width:1.0;" width="10" x="879" y="394.4688"/><rect fill="#FFFFFF" height="28.5234" style="stroke:#181818;stroke-width:1.0;" width="10" x="879" y="622.6563"/><rect fill="#FFFFFF" height="28.5234" style="stroke:#181818;stroke-width:1.0;" width="10" x="986" y="451.5156"/><rect fill="#FFFFFF" height="28.5234" style="stroke:#181818;stroke-width:1.0;" width="10" x="986" y="679.7031"/><rect fill="#FFFFFF" height="28.5234" style="stroke:#181818;stroke-width:1.0;" width="10" x="1110.5" y="508.5625"/><rect fill="#FFFFFF" height="28.5234" style="stroke:#181818;stroke-width:1.0;" width="10" x="1110.5" y="736.75"/><polygon fill="#181818" points="401.5,107.1641,411.5,111.1641,401.5,115.1641,405.5,111.1641" style="stroke:#181818;stroke-width:1.0;"/><line style="stroke:#181818;stroke-width:1.0;" x1="79.5" x2="407.5" y1="111.1641" y2="111.1641"/><text fill="#000000" font-family="sans-serif" font-size="13" font-weight="bold" lengthAdjust="spacing" textLength="7" x="86.5" y="106.4092">1</text><text fill="#000000" font-family="sans-serif" font-size="13" lengthAdjust="spacing" textLength="170" x="97.5" y="106.4092">requests to specify a location</text><polygon fill="#181818" points="633.5,135.6875,643.5,139.6875,633.5,143.6875,637.5,139.6875" style="stroke:#181818;stroke-width:1.0;"/><line style="stroke:#181818;stroke-width:1.0;" x1="423.5" x2="639.5" y1="139.6875" y2="139.6875"/><text fill="#000000" font-family="sans-serif" font-size="13" font-weight="bold" lengthAdjust="spacing" textLength="7" x="430.5" y="134.9326">2</text><text fill="#000000" font-family="sans-serif" font-size="13" lengthAdjust="spacing" textLength="187" x="441.5" y="134.9326">create specify location controller</text><rect fill="#E3E3E3" height="29.6406" rx="2.5" ry="2.5" style="stroke:#181818;stroke-width:0.5;" width="180" x="645.5" y="119.1641"/><text fill="#000000" font-family="sans-serif" font-size="14" lengthAdjust="spacing" textLength="166" x="652.5" y="138.8379">:SpecifyLocationController</text><polygon fill="#181818" points="90.5,176.3281,80.5,180.3281,90.5,184.3281,86.5,180.3281" style="stroke:#181818;stroke-width:1.0;"/><line style="stroke:#181818;stroke-width:1.0;stroke-dasharray:2.0,2.0;" x1="84.5" x2="417.5" y1="180.3281" y2="180.3281"/><text fill="#000000" font-family="sans-serif" font-size="13" font-weight="bold" lengthAdjust="spacing" textLength="7" x="96.5" y="175.5732">3</text><text fill="#000000" font-family="sans-serif" font-size="13" lengthAdjust="spacing" textLength="79" x="107.5" y="175.5732">requests data</text><polygon fill="#181818" points="401.5,204.8516,411.5,208.8516,401.5,212.8516,405.5,208.8516" style="stroke:#181818;stroke-width:1.0;"/><line style="stroke:#181818;stroke-width:1.0;" x1="79.5" x2="407.5" y1="208.8516" y2="208.8516"/><text fill="#000000" font-family="sans-serif" font-size="13" font-weight="bold" lengthAdjust="spacing" textLength="7" x="86.5" y="204.0967">4</text><text fill="#000000" font-family="sans-serif" font-size="13" lengthAdjust="spacing" textLength="233" x="97.5" y="204.0967">types requested data (stateAbbreviation)</text><line style="stroke:#181818;stroke-width:1.0;" x1="428.5" x2="470.5" y1="237.375" y2="237.375"/><line style="stroke:#181818;stroke-width:1.0;" x1="470.5" x2="470.5" y1="237.375" y2="250.375"/><line style="stroke:#181818;stroke-width:1.0;" x1="429.5" x2="470.5" y1="250.375" y2="250.375"/><polygon fill="#181818" points="439.5,246.375,429.5,250.375,439.5,254.375,435.5,250.375" style="stroke:#181818;stroke-width:1.0;"/><text fill="#000000" font-family="sans-serif" font-size="13" font-weight="bold" lengthAdjust="spacing" textLength="7" x="435.5" y="232.6201">5</text><text fill="#000000" font-family="sans-serif" font-size="13" lengthAdjust="spacing" textLength="63" x="446.5" y="232.6201">keepData()</text><polygon fill="#181818" points="90.5,304.8984,80.5,308.8984,90.5,312.8984,86.5,308.8984" style="stroke:#181818;stroke-width:1.0;"/><line style="stroke:#181818;stroke-width:1.0;stroke-dasharray:2.0,2.0;" x1="84.5" x2="417.5" y1="308.8984" y2="308.8984"/><text fill="#000000" font-family="sans-serif" font-size="13" font-weight="bold" lengthAdjust="spacing" textLength="7" x="96.5" y="304.1436">6</text><text fill="#000000" font-family="sans-serif" font-size="13" lengthAdjust="spacing" textLength="127" x="107.5" y="304.1436">shows requested data</text><polygon fill="#181818" points="401.5,333.4219,411.5,337.4219,401.5,341.4219,405.5,337.4219" style="stroke:#181818;stroke-width:1.0;"/><line style="stroke:#181818;stroke-width:1.0;" x1="79.5" x2="407.5" y1="337.4219" y2="337.4219"/><text fill="#000000" font-family="sans-serif" font-size="13" font-weight="bold" lengthAdjust="spacing" textLength="7" x="86.5" y="332.667">7</text><text fill="#000000" font-family="sans-serif" font-size="13" lengthAdjust="spacing" textLength="75" x="97.5" y="332.667">submits data</text><polygon fill="#181818" points="718.5,361.9453,728.5,365.9453,718.5,369.9453,722.5,365.9453" style="stroke:#181818;stroke-width:1.0;"/><line style="stroke:#181818;stroke-width:1.0;" x1="423.5" x2="724.5" y1="365.9453" y2="365.9453"/><text fill="#000000" font-family="sans-serif" font-size="13" font-weight="bold" lengthAdjust="spacing" textLength="7" x="430.5" y="361.1904">8</text><text fill="#000000" font-family="sans-serif" font-size="13" lengthAdjust="spacing" textLength="229" x="441.5" y="361.1904">checkStoresLocation(stateAbbreviation)</text><polygon fill="#181818" points="867,390.4688,877,394.4688,867,398.4688,871,394.4688" style="stroke:#181818;stroke-width:1.0;"/><line style="stroke:#181818;stroke-width:1.0;" x1="740.5" x2="873" y1="394.4688" y2="394.4688"/><text fill="#000000" font-family="sans-serif" font-size="13" font-weight="bold" lengthAdjust="spacing" textLength="7" x="747.5" y="389.7139">9</text><text fill="#000000" font-family="sans-serif" font-size="13" lengthAdjust="spacing" textLength="75" x="758.5" y="389.7139">getInstance()</text><polygon fill="#181818" points="751.5,418.9922,741.5,422.9922,751.5,426.9922,747.5,422.9922" style="stroke:#181818;stroke-width:1.0;"/><line style="stroke:#181818;stroke-width:1.0;stroke-dasharray:2.0,2.0;" x1="745.5" x2="883" y1="422.9922" y2="422.9922"/><text fill="#000000" font-family="sans-serif" font-size="13" font-weight="bold" lengthAdjust="spacing" textLength="14" x="757.5" y="418.2373">10</text><text fill="#000000" font-family="sans-serif" font-size="13" lengthAdjust="spacing" textLength="67" x="775.5" y="418.2373">repositories</text><polygon fill="#181818" points="974,447.5156,984,451.5156,974,455.5156,978,451.5156" style="stroke:#181818;stroke-width:1.0;"/><line style="stroke:#181818;stroke-width:1.0;" x1="740.5" x2="980" y1="451.5156" y2="451.5156"/><text fill="#000000" font-family="sans-serif" font-size="13" font-weight="bold" lengthAdjust="spacing" textLength="14" x="747.5" y="446.7607">11</text><text fill="#000000" font-family="sans-serif" font-size="13" lengthAdjust="spacing" textLength="132" x="765.5" y="446.7607">getAgencyRepository()</text><polygon fill="#181818" points="751.5,476.0391,741.5,480.0391,751.5,484.0391,747.5,480.0391" style="stroke:#181818;stroke-width:1.0;"/><line style="stroke:#181818;stroke-width:1.0;" x1="745.5" x2="990" y1="480.0391" y2="480.0391"/><text fill="#000000" font-family="sans-serif" font-size="13" font-weight="bold" lengthAdjust="spacing" textLength="14" x="757.5" y="475.2842">12</text><text fill="#000000" font-family="sans-serif" font-size="13" lengthAdjust="spacing" textLength="104" x="775.5" y="475.2842">agencyRepository</text><polygon fill="#181818" points="1098.5,504.5625,1108.5,508.5625,1098.5,512.5625,1102.5,508.5625" style="stroke:#181818;stroke-width:1.0;"/><line style="stroke:#181818;stroke-width:1.0;" x1="740.5" x2="1104.5" y1="508.5625" y2="508.5625"/><text fill="#000000" font-family="sans-serif" font-size="13" font-weight="bold" lengthAdjust="spacing" textLength="14" x="747.5" y="503.8076">13</text><text fill="#000000" font-family="sans-serif" font-size="13" lengthAdjust="spacing" textLength="229" x="765.5" y="503.8076">checkStoresLocation(stateAbbreviation)</text><polygon fill="#181818" points="751.5,533.0859,741.5,537.0859,751.5,541.0859,747.5,537.0859" style="stroke:#181818;stroke-width:1.0;"/><line style="stroke:#181818;stroke-width:1.0;stroke-dasharray:2.0,2.0;" x1="745.5" x2="1114.5" y1="537.0859" y2="537.0859"/><text fill="#000000" font-family="sans-serif" font-size="13" font-weight="bold" lengthAdjust="spacing" textLength="14" x="757.5" y="532.3311">14</text><text fill="#000000" font-family="sans-serif" font-size="13" lengthAdjust="spacing" textLength="88" x="775.5" y="532.3311">location verified</text><polygon fill="#181818" points="434.5,561.6094,424.5,565.6094,434.5,569.6094,430.5,565.6094" style="stroke:#181818;stroke-width:1.0;"/><line style="stroke:#181818;stroke-width:1.0;stroke-dasharray:2.0,2.0;" x1="428.5" x2="734.5" y1="565.6094" y2="565.6094"/><text fill="#000000" font-family="sans-serif" font-size="13" font-weight="bold" lengthAdjust="spacing" textLength="14" x="440.5" y="560.8545">15</text><text fill="#000000" font-family="sans-serif" font-size="13" lengthAdjust="spacing" textLength="88" x="458.5" y="560.8545">location verified</text><polygon fill="#181818" points="718.5,590.1328,728.5,594.1328,718.5,598.1328,722.5,594.1328" style="stroke:#181818;stroke-width:1.0;"/><line style="stroke:#181818;stroke-width:1.0;" x1="423.5" x2="724.5" y1="594.1328" y2="594.1328"/><text fill="#000000" font-family="sans-serif" font-size="13" font-weight="bold" lengthAdjust="spacing" textLength="14" x="430.5" y="589.3779">16</text><text fill="#000000" font-family="sans-serif" font-size="13" lengthAdjust="spacing" textLength="214" x="448.5" y="589.3779">findStoresLocation(stateAbbreviation)</text><polygon fill="#181818" points="867,618.6563,877,622.6563,867,626.6563,871,622.6563" style="stroke:#181818;stroke-width:1.0;"/><line style="stroke:#181818;stroke-width:1.0;" x1="740.5" x2="873" y1="622.6563" y2="622.6563"/><text fill="#000000" font-family="sans-serif" font-size="13" font-weight="bold" lengthAdjust="spacing" textLength="14" x="747.5" y="617.9014">17</text><text fill="#000000" font-family="sans-serif" font-size="13" lengthAdjust="spacing" textLength="75" x="765.5" y="617.9014">getInstance()</text><polygon fill="#181818" points="751.5,647.1797,741.5,651.1797,751.5,655.1797,747.5,651.1797" style="stroke:#181818;stroke-width:1.0;"/><line style="stroke:#181818;stroke-width:1.0;stroke-dasharray:2.0,2.0;" x1="745.5" x2="883" y1="651.1797" y2="651.1797"/><text fill="#000000" font-family="sans-serif" font-size="13" font-weight="bold" lengthAdjust="spacing" textLength="14" x="757.5" y="646.4248">18</text><text fill="#000000" font-family="sans-serif" font-size="13" lengthAdjust="spacing" textLength="67" x="775.5" y="646.4248">repositories</text><polygon fill="#181818" points="974,675.7031,984,679.7031,974,683.7031,978,679.7031" style="stroke:#181818;stroke-width:1.0;"/><line style="stroke:#181818;stroke-width:1.0;" x1="740.5" x2="980" y1="679.7031" y2="679.7031"/><text fill="#000000" font-family="sans-serif" font-size="13" font-weight="bold" lengthAdjust="spacing" textLength="14" x="747.5" y="674.9482">19</text><text fill="#000000" font-family="sans-serif" font-size="13" lengthAdjust="spacing" textLength="132" x="765.5" y="674.9482">getAgencyRepository()</text><polygon fill="#181818" points="751.5,704.2266,741.5,708.2266,751.5,712.2266,747.5,708.2266" style="stroke:#181818;stroke-width:1.0;"/><line style="stroke:#181818;stroke-width:1.0;" x1="745.5" x2="990" y1="708.2266" y2="708.2266"/><text fill="#000000" font-family="sans-serif" font-size="13" font-weight="bold" lengthAdjust="spacing" textLength="14" x="757.5" y="703.4717">20</text><text fill="#000000" font-family="sans-serif" font-size="13" lengthAdjust="spacing" textLength="104" x="775.5" y="703.4717">agencyRepository</text><polygon fill="#181818" points="1098.5,732.75,1108.5,736.75,1098.5,740.75,1102.5,736.75" style="stroke:#181818;stroke-width:1.0;"/><line style="stroke:#181818;stroke-width:1.0;" x1="740.5" x2="1104.5" y1="736.75" y2="736.75"/><text fill="#000000" font-family="sans-serif" font-size="13" font-weight="bold" lengthAdjust="spacing" textLength="14" x="747.5" y="731.9951">21</text><text fill="#000000" font-family="sans-serif" font-size="13" lengthAdjust="spacing" textLength="214" x="765.5" y="731.9951">findStoresLocation(stateAbbreviation)</text><polygon fill="#181818" points="751.5,761.2734,741.5,765.2734,751.5,769.2734,747.5,765.2734" style="stroke:#181818;stroke-width:1.0;"/><line style="stroke:#181818;stroke-width:1.0;stroke-dasharray:2.0,2.0;" x1="745.5" x2="1114.5" y1="765.2734" y2="765.2734"/><text fill="#000000" font-family="sans-serif" font-size="13" font-weight="bold" lengthAdjust="spacing" textLength="14" x="757.5" y="760.5186">22</text><text fill="#000000" font-family="sans-serif" font-size="13" lengthAdjust="spacing" textLength="73" x="775.5" y="760.5186">locationsList</text><polygon fill="#181818" points="434.5,789.7969,424.5,793.7969,434.5,797.7969,430.5,793.7969" style="stroke:#181818;stroke-width:1.0;"/><line style="stroke:#181818;stroke-width:1.0;stroke-dasharray:2.0,2.0;" x1="428.5" x2="734.5" y1="793.7969" y2="793.7969"/><text fill="#000000" font-family="sans-serif" font-size="13" font-weight="bold" lengthAdjust="spacing" textLength="14" x="440.5" y="789.042">23</text><text fill="#000000" font-family="sans-serif" font-size="13" lengthAdjust="spacing" textLength="73" x="458.5" y="789.042">locationsList</text><polygon fill="#181818" points="90.5,818.3203,80.5,822.3203,90.5,826.3203,86.5,822.3203" style="stroke:#181818;stroke-width:1.0;"/><line style="stroke:#181818;stroke-width:1.0;stroke-dasharray:2.0,2.0;" x1="84.5" x2="417.5" y1="822.3203" y2="822.3203"/><text fill="#000000" font-family="sans-serif" font-size="13" font-weight="bold" lengthAdjust="spacing" textLength="14" x="96.5" y="817.5654">24</text><text fill="#000000" font-family="sans-serif" font-size="13" lengthAdjust="spacing" textLength="114" x="114.5" y="817.5654">shows locationsList</text><polygon fill="#181818" points="401.5,846.8438,411.5,850.8438,401.5,854.8438,405.5,850.8438" style="stroke:#181818;stroke-width:1.0;"/><line style="stroke:#181818;stroke-width:1.0;" x1="79.5" x2="407.5" y1="850.8438" y2="850.8438"/><text fill="#000000" font-family="sans-serif" font-size="13" font-weight="bold" lengthAdjust="spacing" textLength="14" x="86.5" y="846.0889">25</text><text fill="#000000" font-family="sans-serif" font-size="13" lengthAdjust="spacing" textLength="159" x="104.5" y="846.0889">selects one of the locations</text><line style="stroke:#181818;stroke-width:1.0;" x1="428.5" x2="470.5" y1="879.3672" y2="879.3672"/><line style="stroke:#181818;stroke-width:1.0;" x1="470.5" x2="470.5" y1="879.3672" y2="892.3672"/><line style="stroke:#181818;stroke-width:1.0;" x1="429.5" x2="470.5" y1="892.3672" y2="892.3672"/><polygon fill="#181818" points="439.5,888.3672,429.5,892.3672,439.5,896.3672,435.5,892.3672" style="stroke:#181818;stroke-width:1.0;"/><text fill="#000000" font-family="sans-serif" font-size="13" font-weight="bold" lengthAdjust="spacing" textLength="14" x="435.5" y="874.6123">26</text><text fill="#000000" font-family="sans-serif" font-size="13" lengthAdjust="spacing" textLength="63" x="453.5" y="874.6123">keepData()</text><polygon fill="#181818" points="90.5,946.8906,80.5,950.8906,90.5,954.8906,86.5,950.8906" style="stroke:#181818;stroke-width:1.0;"/><line style="stroke:#181818;stroke-width:1.0;stroke-dasharray:2.0,2.0;" x1="84.5" x2="417.5" y1="950.8906" y2="950.8906"/><text fill="#000000" font-family="sans-serif" font-size="13" font-weight="bold" lengthAdjust="spacing" textLength="14" x="96.5" y="946.1357">27</text><text fill="#000000" font-family="sans-serif" font-size="13" lengthAdjust="spacing" textLength="292" x="114.5" y="946.1357">shows location selected and requests confirmation</text><polygon fill="#181818" points="401.5,975.4141,411.5,979.4141,401.5,983.4141,405.5,979.4141" style="stroke:#181818;stroke-width:1.0;"/><line style="stroke:#181818;stroke-width:1.0;" x1="79.5" x2="407.5" y1="979.4141" y2="979.4141"/><text fill="#000000" font-family="sans-serif" font-size="13" font-weight="bold" lengthAdjust="spacing" textLength="14" x="86.5" y="974.6592">28</text><text fill="#000000" font-family="sans-serif" font-size="13" lengthAdjust="spacing" textLength="98" x="104.5" y="974.6592">confirms location</text><polygon fill="#181818" points="85.5,1003.9375,75.5,1007.9375,85.5,1011.9375,81.5,1007.9375" style="stroke:#181818;stroke-width:1.0;"/><line style="stroke:#181818;stroke-width:1.0;stroke-dasharray:2.0,2.0;" x1="79.5" x2="412.5" y1="1007.9375" y2="1007.9375"/><text fill="#000000" font-family="sans-serif" font-size="13" font-weight="bold" lengthAdjust="spacing" textLength="14" x="91.5" y="1003.1826">29</text><text fill="#000000" font-family="sans-serif" font-size="13" lengthAdjust="spacing" textLength="158" x="109.5" y="1003.1826">displays operation success</text><!--SRC=[dLRBRkCm3BpxAuYSsWBx0pui4BIN05aWIBQtNXIPJeJOabUIK_ZlbvOViULdwbCYayCPQcJAt8JCc6Off4egVjKgHR0wny2qRpB6R-o29ria21gvPVAIT0FCbKNgMyWBn2mn60GijqhcwHar_UPMQTYS2cCnXMsK2YcCrOnMDy0CR3_-10HZ1HSPanOsuIb3Bk9YhpYpGidFdOlxtCs7lIjfjKeIh63V_nxtNi8HCsK4rHLeNCpnq8_GdO0lEOpNVW9rHVAYZIl2BxdrbYgDtgBhYhWpYqv-0FL3V-3NRv8A8JNwNux66h0AJ2KL62IrMfVIWb1lMWnA9eXI_jjR25nZ6T00DEd0ssxrCocr9D4f7p7BN4Y4e_Mwd6sHeMbICNAvy68ivMpFPurtuQg_JhD_A720DyJiWq1UNdiHtTJk-WJ5Xx2GlAg-VOghv55gVav5joE3X4VlgVDNvBSJxJQQng9JdHZ8SkRjlUe-vTkopl4GmWNjJXAivEZrQ01Avfs4F1vSXohctMCmcj5frHnemrFNHFrJi4HOpu7hadB3s3-7IwmdaHlAFjKVRMTFpF0JC5RVZ-hiIdjqxwX5B30APWGkLwkKriwUn-xWLiOSEQqLnrZ8Q7sF5ko-pkQpJbndwmKxFsdZUPEjj-sINQUj-jmkFEdI5GurUnhmmO-SEUhAFjx0ZQFZg_hC3n5M33632Trn32Y9e6AmLtpW16CJAF07r-ZS6fjPY_DgeAHcHuEBoUWnf6cSnqAdrTLWXSOwtgoyJxHa8c6oX1NKd0nrJIZd78tnk-lkDTx__m00]--></g></svg>