<?xml version="1.0" encoding="us-ascii" standalone="no"?><svg xmlns="http://www.w3.org/2000/svg" xmlns:xlink="http://www.w3.org/1999/xlink" contentStyleType="text/css" height="403px" preserveAspectRatio="none" style="width:527px;height:403px;background:#FFFFFF;" version="1.1" viewBox="0 0 527 403" width="527px" zoomAndPan="magnify"><defs/><g><!--class SpecifyLocationUI--><g id="elem_SpecifyLocationUI"><rect codeLine="9" fill="#F1F1F1" height="48" id="SpecifyLocationUI" rx="2.5" ry="2.5" style="stroke:#181818;stroke-width:0.5;" width="144" x="172" y="7"/><ellipse cx="187" cy="23" fill="#ADD1B2" rx="11" ry="11" style="stroke:#181818;stroke-width:1.0;"/><path d="M189.7656,18.875 Q189.9219,18.6563 190.1094,18.5469 Q190.2969,18.4375 190.5156,18.4375 Q190.8906,18.4375 191.125,18.7031 Q191.3594,18.9531 191.3594,19.5625 L191.3594,21.0156 Q191.3594,21.625 191.125,21.8906 Q190.8906,22.1563 190.5156,22.1563 Q190.1719,22.1563 189.9688,21.9531 Q189.7656,21.7656 189.6563,21.25 Q189.6094,20.8906 189.4219,20.7031 Q189.0938,20.3281 188.4844,20.1094 Q187.875,19.8906 187.25,19.8906 Q186.4844,19.8906 185.8438,20.2188 Q185.2188,20.5469 184.7188,21.2969 Q184.2344,22.0469 184.2344,23.0781 L184.2344,24.1719 Q184.2344,25.4063 185.125,26.2344 Q186.0156,27.0469 187.6094,27.0469 Q188.5469,27.0469 189.2031,26.7969 Q189.5938,26.6406 190.0156,26.2031 Q190.2813,25.9375 190.4219,25.8594 Q190.5781,25.7813 190.7813,25.7813 Q191.1094,25.7813 191.3594,26.0469 Q191.625,26.2969 191.625,26.6406 Q191.625,26.9844 191.2813,27.3906 Q190.7813,27.9688 189.9844,28.2969 Q188.9063,28.75 187.6094,28.75 Q186.0938,28.75 184.8906,28.125 Q183.9063,27.625 183.2188,26.5625 Q182.5313,25.4844 182.5313,24.2031 L182.5313,23.0469 Q182.5313,21.7188 183.1406,20.5781 Q183.7656,19.4219 184.8594,18.8125 Q185.9531,18.1875 187.1875,18.1875 Q187.9219,18.1875 188.5625,18.3594 Q189.2188,18.5156 189.7656,18.875 Z " fill="#000000"/><text fill="#000000" font-family="sans-serif" font-size="14" lengthAdjust="spacing" textLength="112" x="201" y="27.8535">SpecifyLocationUI</text><line style="stroke:#181818;stroke-width:0.5;" x1="173" x2="315" y1="39" y2="39"/><line style="stroke:#181818;stroke-width:0.5;" x1="173" x2="315" y1="47" y2="47"/></g><!--class SpecifyLocationController--><g id="elem_SpecifyLocationController"><rect codeLine="11" fill="#F1F1F1" height="94.9219" id="SpecifyLocationController" rx="2.5" ry="2.5" style="stroke:#181818;stroke-width:0.5;" width="278" x="105" y="115"/><ellipse cx="158.75" cy="131" fill="#ADD1B2" rx="11" ry="11" style="stroke:#181818;stroke-width:1.0;"/><path d="M161.5156,126.875 Q161.6719,126.6563 161.8594,126.5469 Q162.0469,126.4375 162.2656,126.4375 Q162.6406,126.4375 162.875,126.7031 Q163.1094,126.9531 163.1094,127.5625 L163.1094,129.0156 Q163.1094,129.625 162.875,129.8906 Q162.6406,130.1563 162.2656,130.1563 Q161.9219,130.1563 161.7188,129.9531 Q161.5156,129.7656 161.4063,129.25 Q161.3594,128.8906 161.1719,128.7031 Q160.8438,128.3281 160.2344,128.1094 Q159.625,127.8906 159,127.8906 Q158.2344,127.8906 157.5938,128.2188 Q156.9688,128.5469 156.4688,129.2969 Q155.9844,130.0469 155.9844,131.0781 L155.9844,132.1719 Q155.9844,133.4063 156.875,134.2344 Q157.7656,135.0469 159.3594,135.0469 Q160.2969,135.0469 160.9531,134.7969 Q161.3438,134.6406 161.7656,134.2031 Q162.0313,133.9375 162.1719,133.8594 Q162.3281,133.7813 162.5313,133.7813 Q162.8594,133.7813 163.1094,134.0469 Q163.375,134.2969 163.375,134.6406 Q163.375,134.9844 163.0313,135.3906 Q162.5313,135.9688 161.7344,136.2969 Q160.6563,136.75 159.3594,136.75 Q157.8438,136.75 156.6406,136.125 Q155.6563,135.625 154.9688,134.5625 Q154.2813,133.4844 154.2813,132.2031 L154.2813,131.0469 Q154.2813,129.7188 154.8906,128.5781 Q155.5156,127.4219 156.6094,126.8125 Q157.7031,126.1875 158.9375,126.1875 Q159.6719,126.1875 160.3125,126.3594 Q160.9688,126.5156 161.5156,126.875 Z " fill="#000000"/><text fill="#000000" font-family="sans-serif" font-size="14" lengthAdjust="spacing" textLength="162" x="179.25" y="135.8535">SpecifyLocationController</text><line style="stroke:#181818;stroke-width:0.5;" x1="106" x2="382" y1="147" y2="147"/><rect fill="none" height="6" style="stroke:#C82930;stroke-width:1.0;" width="6" x="113" y="157.3203"/><text fill="#000000" font-family="sans-serif" font-size="14" lengthAdjust="spacing" textLength="92" x="125" y="163.6738">String address</text><line style="stroke:#181818;stroke-width:0.5;" x1="106" x2="382" y1="170.6406" y2="170.6406"/><ellipse cx="116" cy="183.9609" fill="#84BE84" rx="3" ry="3" style="stroke:#038048;stroke-width:1.0;"/><text fill="#000000" font-family="sans-serif" font-size="14" lengthAdjust="spacing" textLength="252" x="125" y="187.3145">checkStoresLocation(stateAbbreviation)</text><ellipse cx="116" cy="199.6016" fill="#84BE84" rx="3" ry="3" style="stroke:#038048;stroke-width:1.0;"/><text fill="#000000" font-family="sans-serif" font-size="14" lengthAdjust="spacing" textLength="238" x="125" y="202.9551">findStoresLocation(stateAbbreviation)</text></g><!--class Repositories--><g id="elem_Repositories"><rect codeLine="17" fill="#F1F1F1" height="94.9219" id="Repositories" rx="2.5" ry="2.5" style="stroke:#181818;stroke-width:0.5;" width="200" x="7" y="285.5"/><ellipse cx="63.25" cy="301.5" fill="#ADD1B2" rx="11" ry="11" style="stroke:#181818;stroke-width:1.0;"/><path d="M66.0156,297.375 Q66.1719,297.1563 66.3594,297.0469 Q66.5469,296.9375 66.7656,296.9375 Q67.1406,296.9375 67.375,297.2031 Q67.6094,297.4531 67.6094,298.0625 L67.6094,299.5156 Q67.6094,300.125 67.375,300.3906 Q67.1406,300.6563 66.7656,300.6563 Q66.4219,300.6563 66.2188,300.4531 Q66.0156,300.2656 65.9063,299.75 Q65.8594,299.3906 65.6719,299.2031 Q65.3438,298.8281 64.7344,298.6094 Q64.125,298.3906 63.5,298.3906 Q62.7344,298.3906 62.0938,298.7188 Q61.4688,299.0469 60.9688,299.7969 Q60.4844,300.5469 60.4844,301.5781 L60.4844,302.6719 Q60.4844,303.9063 61.375,304.7344 Q62.2656,305.5469 63.8594,305.5469 Q64.7969,305.5469 65.4531,305.2969 Q65.8438,305.1406 66.2656,304.7031 Q66.5313,304.4375 66.6719,304.3594 Q66.8281,304.2813 67.0313,304.2813 Q67.3594,304.2813 67.6094,304.5469 Q67.875,304.7969 67.875,305.1406 Q67.875,305.4844 67.5313,305.8906 Q67.0313,306.4688 66.2344,306.7969 Q65.1563,307.25 63.8594,307.25 Q62.3438,307.25 61.1406,306.625 Q60.1563,306.125 59.4688,305.0625 Q58.7813,303.9844 58.7813,302.7031 L58.7813,301.5469 Q58.7813,300.2188 59.3906,299.0781 Q60.0156,297.9219 61.1094,297.3125 Q62.2031,296.6875 63.4375,296.6875 Q64.1719,296.6875 64.8125,296.8594 Q65.4688,297.0156 66.0156,297.375 Z " fill="#000000"/><text fill="#000000" font-family="sans-serif" font-size="14" lengthAdjust="spacing" textLength="79" x="83.75" y="306.3535">Repositories</text><line style="stroke:#181818;stroke-width:0.5;" x1="8" x2="206" y1="317.5" y2="317.5"/><line style="stroke:#181818;stroke-width:0.5;" x1="8" x2="206" y1="325.5" y2="325.5"/><rect fill="#F24D5C" height="6" style="stroke:#C82930;stroke-width:1.0;" width="6" x="15" y="335.8203"/><text fill="#000000" font-family="sans-serif" font-size="14" lengthAdjust="spacing" textLength="89" x="27" y="342.1738">Repositories()</text><ellipse cx="18" cy="354.4609" fill="#84BE84" rx="3" ry="3" style="stroke:#038048;stroke-width:1.0;"/><text fill="#000000" font-family="sans-serif" font-size="14" lengthAdjust="spacing" textLength="174" x="27" y="357.8145">getInstance() : Repositories</text><ellipse cx="18" cy="370.1016" fill="#84BE84" rx="3" ry="3" style="stroke:#038048;stroke-width:1.0;"/><text fill="#000000" font-family="sans-serif" font-size="14" lengthAdjust="spacing" textLength="145" x="27" y="373.4551">getAgencyRepository()</text></g><!--class AgencyRepository--><g id="elem_AgencyRepository"><rect codeLine="23" fill="#F1F1F1" height="126.2031" id="AgencyRepository" rx="2.5" ry="2.5" style="stroke:#181818;stroke-width:0.5;" width="278" x="242" y="270"/><ellipse cx="319.25" cy="286" fill="#ADD1B2" rx="11" ry="11" style="stroke:#181818;stroke-width:1.0;"/><path d="M322.0156,281.875 Q322.1719,281.6563 322.3594,281.5469 Q322.5469,281.4375 322.7656,281.4375 Q323.1406,281.4375 323.375,281.7031 Q323.6094,281.9531 323.6094,282.5625 L323.6094,284.0156 Q323.6094,284.625 323.375,284.8906 Q323.1406,285.1563 322.7656,285.1563 Q322.4219,285.1563 322.2188,284.9531 Q322.0156,284.7656 321.9063,284.25 Q321.8594,283.8906 321.6719,283.7031 Q321.3438,283.3281 320.7344,283.1094 Q320.125,282.8906 319.5,282.8906 Q318.7344,282.8906 318.0938,283.2188 Q317.4688,283.5469 316.9688,284.2969 Q316.4844,285.0469 316.4844,286.0781 L316.4844,287.1719 Q316.4844,288.4063 317.375,289.2344 Q318.2656,290.0469 319.8594,290.0469 Q320.7969,290.0469 321.4531,289.7969 Q321.8438,289.6406 322.2656,289.2031 Q322.5313,288.9375 322.6719,288.8594 Q322.8281,288.7813 323.0313,288.7813 Q323.3594,288.7813 323.6094,289.0469 Q323.875,289.2969 323.875,289.6406 Q323.875,289.9844 323.5313,290.3906 Q323.0313,290.9688 322.2344,291.2969 Q321.1563,291.75 319.8594,291.75 Q318.3438,291.75 317.1406,291.125 Q316.1563,290.625 315.4688,289.5625 Q314.7813,288.4844 314.7813,287.2031 L314.7813,286.0469 Q314.7813,284.7188 315.3906,283.5781 Q316.0156,282.4219 317.1094,281.8125 Q318.2031,281.1875 319.4375,281.1875 Q320.1719,281.1875 320.8125,281.3594 Q321.4688,281.5156 322.0156,281.875 Z " fill="#000000"/><text fill="#000000" font-family="sans-serif" font-size="14" lengthAdjust="spacing" textLength="115" x="339.75" y="290.8535">AgencyRepository</text><line style="stroke:#181818;stroke-width:0.5;" x1="243" x2="519" y1="302" y2="302"/><rect fill="none" height="6" style="stroke:#C82930;stroke-width:1.0;" width="6" x="250" y="312.3203"/><text fill="#000000" font-family="sans-serif" font-size="14" lengthAdjust="spacing" textLength="99" x="262" y="318.6738">Adress address</text><rect fill="none" height="6" style="stroke:#C82930;stroke-width:1.0;" width="6" x="250" y="327.9609"/><text fill="#000000" font-family="sans-serif" font-size="14" lengthAdjust="spacing" textLength="184" x="262" y="334.3145">boolean storesLocationExists</text><line style="stroke:#181818;stroke-width:0.5;" x1="243" x2="519" y1="341.2813" y2="341.2813"/><ellipse cx="253" cy="354.6016" fill="#84BE84" rx="3" ry="3" style="stroke:#038048;stroke-width:1.0;"/><text fill="#000000" font-family="sans-serif" font-size="14" lengthAdjust="spacing" textLength="168" x="262" y="357.9551">getAgencyByDesignation()</text><ellipse cx="253" cy="370.2422" fill="#84BE84" rx="3" ry="3" style="stroke:#038048;stroke-width:1.0;"/><text fill="#000000" font-family="sans-serif" font-size="14" lengthAdjust="spacing" textLength="252" x="262" y="373.5957">checkStoresLocation(stateAbbreviation)</text><ellipse cx="253" cy="385.8828" fill="#84BE84" rx="3" ry="3" style="stroke:#038048;stroke-width:1.0;"/><text fill="#000000" font-family="sans-serif" font-size="14" lengthAdjust="spacing" textLength="238" x="262" y="389.2363">findStoresLocation(stateAbbreviation)</text></g><!--link SpecifyLocationUI to SpecifyLocationController--><g id="link_SpecifyLocationUI_SpecifyLocationController"><path codeLine="32" d="M244,55.15 C244,71.74 244,94.64 244,114.95 " fill="none" id="SpecifyLocationUI-SpecifyLocationController" style="stroke:#181818;stroke-width:1.0;"/></g><!--reverse link SpecifyLocationController to Repositories--><g id="link_SpecifyLocationController_Repositories"><path codeLine="33" d="M202.46,214.59 C184.17,237.09 162.82,263.35 144.96,285.32 " fill="none" id="SpecifyLocationController-backto-Repositories" style="stroke:#181818;stroke-width:1.0;"/><polygon fill="#181818" points="205.84,210.44,197.0522,214.8868,202.68,214.3149,203.252,219.9427,205.84,210.44" style="stroke:#181818;stroke-width:1.0;"/><text fill="#000000" font-family="sans-serif" font-size="13" lengthAdjust="spacing" textLength="5" x="145.3898" y="274.7617">*</text></g><!--reverse link SpecifyLocationController to AgencyRepository--><g id="link_SpecifyLocationController_AgencyRepository"><path codeLine="34" d="M285.35,214.36 C299.56,231.84 315.63,251.6 330.49,269.88 " fill="none" id="SpecifyLocationController-backto-AgencyRepository" style="stroke:#181818;stroke-width:1.0;"/><polygon fill="#181818" points="282.16,210.44,284.748,219.9427,285.32,214.3149,290.9478,214.8868,282.16,210.44" style="stroke:#181818;stroke-width:1.0;"/><text fill="#000000" font-family="sans-serif" font-size="13" lengthAdjust="spacing" textLength="7" x="304.1763" y="259.1222">1</text></g><!--SRC=[jP7BJiD034NtynMZR4Yf8j4jOXCUYqYiYFY0oSHDHvtQqTWyXef_PmWGKahLLPVskRv-yTfXRuBPw0qXsLMW3UYbyGoAHzGRkpOTr18zw01M37OUrDclWbUcfHU7tNVj17c78B47tPEFdy6_a8AGchIqtZ2N8i4rJmAL9QpT6-Z5XL83qdKFrYtZFLaZZl2nshuVG3U44iXx25jLrCanJMdQDW2pcjiLs7KjbA8VVSvY1Cgc2V3iXinCpPSEs-EoSOG7w8bTqZlWr7KQvicj0wamrQE5VAOlT-G3BJj06yTqp2VUVrdoBuTjngsAXiY3GSqx4z-zEfQf_tMy1NOTVkqpEy4rrDwRT54SVf0wIFHLgilEizrJ7P4ljDRPthsK-W00]--></g></svg>