<?xml version="1.0" encoding="us-ascii" standalone="no"?><svg xmlns="http://www.w3.org/2000/svg" xmlns:xlink="http://www.w3.org/1999/xlink" contentStyleType="text/css" height="706px" preserveAspectRatio="none" style="width:834px;height:706px;background:#FFFFFF;" version="1.1" viewBox="0 0 834 706" width="834px" zoomAndPan="magnify"><defs/><g><rect fill="#FFFFFF" height="517.8281" style="stroke:#181818;stroke-width:1.0;" width="10" x="69.5" y="90.6406"/><rect fill="#FFFFFF" height="69.1641" style="stroke:#181818;stroke-width:1.0;" width="10" x="413.5" y="111.1641"/><rect fill="#FFFFFF" height="28.5234" style="stroke:#181818;stroke-width:1.0;" width="10" x="413.5" y="208.8516"/><rect fill="#FFFFFF" height="228.4766" style="stroke:#181818;stroke-width:1.0;" width="10" x="413.5" y="265.8984"/><rect fill="#FFFFFF" height="28.5234" style="stroke:#181818;stroke-width:1.0;" width="10" x="413.5" y="522.8984"/><rect fill="#FFFFFF" height="37.5234" style="stroke:#181818;stroke-width:1.0;" width="10" x="413.5" y="579.9453"/><rect fill="#FFFFFF" height="71.4531" style="stroke:#181818;stroke-width:1.0;" width="10" x="730.5" y="294.4219"/><rect fill="#FFFFFF" height="71.4531" style="stroke:#181818;stroke-width:1.0;" width="10" x="730.5" y="394.3984"/><line style="stroke:#181818;stroke-width:0.5;stroke-dasharray:5.0,5.0;" x1="74" x2="74" y1="80.6406" y2="626.4688"/><line style="stroke:#181818;stroke-width:0.5;stroke-dasharray:5.0,5.0;" x1="418.5" x2="418.5" y1="80.6406" y2="626.4688"/><line style="stroke:#181818;stroke-width:0.5;stroke-dasharray:5.0,5.0;" x1="735.5" x2="735.5" y1="149.4844" y2="626.4688"/><text fill="#000000" font-family="sans-serif" font-size="14" lengthAdjust="spacing" textLength="133" x="5" y="77.6738">System Administrator</text><ellipse cx="74.5" cy="13.5" fill="#E3E3E3" rx="8" ry="8" style="stroke:#181818;stroke-width:0.5;"/><path d="M74.5,21.5 L74.5,48.5 M61.5,29.5 L87.5,29.5 M74.5,48.5 L61.5,63.5 M74.5,48.5 L87.5,63.5 " fill="none" style="stroke:#181818;stroke-width:0.5;"/><text fill="#000000" font-family="sans-serif" font-size="14" lengthAdjust="spacing" textLength="133" x="5" y="638.1426">System Administrator</text><ellipse cx="74.5" cy="649.6094" fill="#E3E3E3" rx="8" ry="8" style="stroke:#181818;stroke-width:0.5;"/><path d="M74.5,657.6094 L74.5,684.6094 M61.5,665.6094 L87.5,665.6094 M74.5,684.6094 L61.5,699.6094 M74.5,684.6094 L87.5,699.6094 " fill="none" style="stroke:#181818;stroke-width:0.5;"/><rect fill="#E3E3E3" height="29.6406" rx="2.5" ry="2.5" style="stroke:#181818;stroke-width:0.5;" width="130" x="353.5" y="50"/><text fill="#000000" font-family="sans-serif" font-size="14" lengthAdjust="spacing" textLength="116" x="360.5" y="69.6738">:SpecifyLocationUI</text><rect fill="#E3E3E3" height="29.6406" rx="2.5" ry="2.5" style="stroke:#181818;stroke-width:0.5;" width="130" x="353.5" y="625.4688"/><text fill="#000000" font-family="sans-serif" font-size="14" lengthAdjust="spacing" textLength="116" x="360.5" y="645.1426">:SpecifyLocationUI</text><rect fill="#E3E3E3" height="29.6406" rx="2.5" ry="2.5" style="stroke:#181818;stroke-width:0.5;" width="180" x="645.5" y="625.4688"/><text fill="#000000" font-family="sans-serif" font-size="14" lengthAdjust="spacing" textLength="166" x="652.5" y="645.1426">:SpecifyLocationController</text><rect fill="#FFFFFF" height="517.8281" style="stroke:#181818;stroke-width:1.0;" width="10" x="69.5" y="90.6406"/><rect fill="#FFFFFF" height="69.1641" style="stroke:#181818;stroke-width:1.0;" width="10" x="413.5" y="111.1641"/><rect fill="#FFFFFF" height="28.5234" style="stroke:#181818;stroke-width:1.0;" width="10" x="413.5" y="208.8516"/><rect fill="#FFFFFF" height="228.4766" style="stroke:#181818;stroke-width:1.0;" width="10" x="413.5" y="265.8984"/><rect fill="#FFFFFF" height="28.5234" style="stroke:#181818;stroke-width:1.0;" width="10" x="413.5" y="522.8984"/><rect fill="#FFFFFF" height="37.5234" style="stroke:#181818;stroke-width:1.0;" width="10" x="413.5" y="579.9453"/><rect fill="#FFFFFF" height="71.4531" style="stroke:#181818;stroke-width:1.0;" width="10" x="730.5" y="294.4219"/><rect fill="#FFFFFF" height="71.4531" style="stroke:#181818;stroke-width:1.0;" width="10" x="730.5" y="394.3984"/><polygon fill="#181818" points="401.5,107.1641,411.5,111.1641,401.5,115.1641,405.5,111.1641" style="stroke:#181818;stroke-width:1.0;"/><line style="stroke:#181818;stroke-width:1.0;" x1="79.5" x2="407.5" y1="111.1641" y2="111.1641"/><text fill="#000000" font-family="sans-serif" font-size="13" font-weight="bold" lengthAdjust="spacing" textLength="7" x="86.5" y="106.4092">1</text><text fill="#000000" font-family="sans-serif" font-size="13" lengthAdjust="spacing" textLength="170" x="97.5" y="106.4092">requests to specify a location</text><polygon fill="#181818" points="633.5,135.6875,643.5,139.6875,633.5,143.6875,637.5,139.6875" style="stroke:#181818;stroke-width:1.0;"/><line style="stroke:#181818;stroke-width:1.0;" x1="423.5" x2="639.5" y1="139.6875" y2="139.6875"/><text fill="#000000" font-family="sans-serif" font-size="13" font-weight="bold" lengthAdjust="spacing" textLength="7" x="430.5" y="134.9326">2</text><text fill="#000000" font-family="sans-serif" font-size="13" lengthAdjust="spacing" textLength="187" x="441.5" y="134.9326">create specify location controller</text><rect fill="#E3E3E3" height="29.6406" rx="2.5" ry="2.5" style="stroke:#181818;stroke-width:0.5;" width="180" x="645.5" y="119.1641"/><text fill="#000000" font-family="sans-serif" font-size="14" lengthAdjust="spacing" textLength="166" x="652.5" y="138.8379">:SpecifyLocationController</text><polygon fill="#181818" points="90.5,176.3281,80.5,180.3281,90.5,184.3281,86.5,180.3281" style="stroke:#181818;stroke-width:1.0;"/><line style="stroke:#181818;stroke-width:1.0;stroke-dasharray:2.0,2.0;" x1="84.5" x2="417.5" y1="180.3281" y2="180.3281"/><text fill="#000000" font-family="sans-serif" font-size="13" font-weight="bold" lengthAdjust="spacing" textLength="7" x="96.5" y="175.5732">3</text><text fill="#000000" font-family="sans-serif" font-size="13" lengthAdjust="spacing" textLength="79" x="107.5" y="175.5732">requests data</text><polygon fill="#181818" points="401.5,204.8516,411.5,208.8516,401.5,212.8516,405.5,208.8516" style="stroke:#181818;stroke-width:1.0;"/><line style="stroke:#181818;stroke-width:1.0;" x1="79.5" x2="407.5" y1="208.8516" y2="208.8516"/><text fill="#000000" font-family="sans-serif" font-size="13" font-weight="bold" lengthAdjust="spacing" textLength="7" x="86.5" y="204.0967">4</text><text fill="#000000" font-family="sans-serif" font-size="13" lengthAdjust="spacing" textLength="233" x="97.5" y="204.0967">types requested data (stateAbbreviation)</text><polygon fill="#181818" points="90.5,233.375,80.5,237.375,90.5,241.375,86.5,237.375" style="stroke:#181818;stroke-width:1.0;"/><line style="stroke:#181818;stroke-width:1.0;stroke-dasharray:2.0,2.0;" x1="84.5" x2="417.5" y1="237.375" y2="237.375"/><text fill="#000000" font-family="sans-serif" font-size="13" font-weight="bold" lengthAdjust="spacing" textLength="7" x="96.5" y="232.6201">5</text><text fill="#000000" font-family="sans-serif" font-size="13" lengthAdjust="spacing" textLength="127" x="107.5" y="232.6201">shows requested data</text><polygon fill="#181818" points="401.5,261.8984,411.5,265.8984,401.5,269.8984,405.5,265.8984" style="stroke:#181818;stroke-width:1.0;"/><line style="stroke:#181818;stroke-width:1.0;" x1="79.5" x2="407.5" y1="265.8984" y2="265.8984"/><text fill="#000000" font-family="sans-serif" font-size="13" font-weight="bold" lengthAdjust="spacing" textLength="7" x="86.5" y="261.1436">6</text><text fill="#000000" font-family="sans-serif" font-size="13" lengthAdjust="spacing" textLength="75" x="97.5" y="261.1436">submits data</text><polygon fill="#181818" points="718.5,290.4219,728.5,294.4219,718.5,298.4219,722.5,294.4219" style="stroke:#181818;stroke-width:1.0;"/><line style="stroke:#181818;stroke-width:1.0;" x1="423.5" x2="724.5" y1="294.4219" y2="294.4219"/><text fill="#000000" font-family="sans-serif" font-size="13" font-weight="bold" lengthAdjust="spacing" textLength="7" x="430.5" y="289.667">7</text><text fill="#000000" font-family="sans-serif" font-size="13" lengthAdjust="spacing" textLength="229" x="441.5" y="289.667">checkStoresLocation(stateAbbreviation)</text><rect fill="none" height="37.9297" style="stroke:#000000;stroke-width:1.5;" width="186" x="642.5" y="302.4219"/><path d="M642.5,302.4219 L704.5,302.4219 L704.5,308.4219 L694.5,318.4219 L642.5,318.4219 L642.5,302.4219 " fill="#EEEEEE" style="stroke:#000000;stroke-width:2.0;"/><text fill="#000000" font-family="sans-serif" font-size="13" font-weight="bold" lengthAdjust="spacing" textLength="17" x="655.5" y="316.1904">ref</text><text fill="#000000" font-family="sans-serif" font-size="12" lengthAdjust="spacing" textLength="124" x="673.5" y="333.2852">Check Stores Location</text><polygon fill="#181818" points="434.5,361.875,424.5,365.875,434.5,369.875,430.5,365.875" style="stroke:#181818;stroke-width:1.0;"/><line style="stroke:#181818;stroke-width:1.0;stroke-dasharray:2.0,2.0;" x1="428.5" x2="734.5" y1="365.875" y2="365.875"/><text fill="#000000" font-family="sans-serif" font-size="13" font-weight="bold" lengthAdjust="spacing" textLength="7" x="440.5" y="361.1201">8</text><text fill="#000000" font-family="sans-serif" font-size="13" lengthAdjust="spacing" textLength="88" x="451.5" y="361.1201">location verified</text><polygon fill="#181818" points="718.5,390.3984,728.5,394.3984,718.5,398.3984,722.5,394.3984" style="stroke:#181818;stroke-width:1.0;"/><line style="stroke:#181818;stroke-width:1.0;" x1="423.5" x2="724.5" y1="394.3984" y2="394.3984"/><text fill="#000000" font-family="sans-serif" font-size="13" font-weight="bold" lengthAdjust="spacing" textLength="7" x="430.5" y="389.6436">9</text><text fill="#000000" font-family="sans-serif" font-size="13" lengthAdjust="spacing" textLength="214" x="441.5" y="389.6436">findStoresLocation(stateAbbreviation)</text><rect fill="none" height="37.9297" style="stroke:#000000;stroke-width:1.5;" width="186" x="642.5" y="402.3984"/><path d="M642.5,402.3984 L704.5,402.3984 L704.5,408.3984 L694.5,418.3984 L642.5,418.3984 L642.5,402.3984 " fill="#EEEEEE" style="stroke:#000000;stroke-width:2.0;"/><text fill="#000000" font-family="sans-serif" font-size="13" font-weight="bold" lengthAdjust="spacing" textLength="17" x="655.5" y="416.167">ref</text><text fill="#000000" font-family="sans-serif" font-size="12" lengthAdjust="spacing" textLength="113" x="679" y="433.2617">Find Stores Location</text><polygon fill="#181818" points="434.5,461.8516,424.5,465.8516,434.5,469.8516,430.5,465.8516" style="stroke:#181818;stroke-width:1.0;"/><line style="stroke:#181818;stroke-width:1.0;stroke-dasharray:2.0,2.0;" x1="428.5" x2="734.5" y1="465.8516" y2="465.8516"/><text fill="#000000" font-family="sans-serif" font-size="13" font-weight="bold" lengthAdjust="spacing" textLength="14" x="440.5" y="461.0967">10</text><text fill="#000000" font-family="sans-serif" font-size="13" lengthAdjust="spacing" textLength="73" x="458.5" y="461.0967">locations list</text><polygon fill="#181818" points="90.5,490.375,80.5,494.375,90.5,498.375,86.5,494.375" style="stroke:#181818;stroke-width:1.0;"/><line style="stroke:#181818;stroke-width:1.0;stroke-dasharray:2.0,2.0;" x1="84.5" x2="417.5" y1="494.375" y2="494.375"/><text fill="#000000" font-family="sans-serif" font-size="13" font-weight="bold" lengthAdjust="spacing" textLength="14" x="96.5" y="489.6201">11</text><text fill="#000000" font-family="sans-serif" font-size="13" lengthAdjust="spacing" textLength="114" x="114.5" y="489.6201">shows locations list</text><polygon fill="#181818" points="401.5,518.8984,411.5,522.8984,401.5,526.8984,405.5,522.8984" style="stroke:#181818;stroke-width:1.0;"/><line style="stroke:#181818;stroke-width:1.0;" x1="79.5" x2="407.5" y1="522.8984" y2="522.8984"/><text fill="#000000" font-family="sans-serif" font-size="13" font-weight="bold" lengthAdjust="spacing" textLength="14" x="86.5" y="518.1436">12</text><text fill="#000000" font-family="sans-serif" font-size="13" lengthAdjust="spacing" textLength="159" x="104.5" y="518.1436">selects one of the locations</text><polygon fill="#181818" points="90.5,547.4219,80.5,551.4219,90.5,555.4219,86.5,551.4219" style="stroke:#181818;stroke-width:1.0;"/><line style="stroke:#181818;stroke-width:1.0;stroke-dasharray:2.0,2.0;" x1="84.5" x2="417.5" y1="551.4219" y2="551.4219"/><text fill="#000000" font-family="sans-serif" font-size="13" font-weight="bold" lengthAdjust="spacing" textLength="14" x="96.5" y="546.667">13</text><text fill="#000000" font-family="sans-serif" font-size="13" lengthAdjust="spacing" textLength="292" x="114.5" y="546.667">shows location selected and requests confirmation</text><polygon fill="#181818" points="401.5,575.9453,411.5,579.9453,401.5,583.9453,405.5,579.9453" style="stroke:#181818;stroke-width:1.0;"/><line style="stroke:#181818;stroke-width:1.0;" x1="79.5" x2="407.5" y1="579.9453" y2="579.9453"/><text fill="#000000" font-family="sans-serif" font-size="13" font-weight="bold" lengthAdjust="spacing" textLength="14" x="86.5" y="575.1904">14</text><text fill="#000000" font-family="sans-serif" font-size="13" lengthAdjust="spacing" textLength="98" x="104.5" y="575.1904">confirms location</text><polygon fill="#181818" points="85.5,604.4688,75.5,608.4688,85.5,612.4688,81.5,608.4688" style="stroke:#181818;stroke-width:1.0;"/><line style="stroke:#181818;stroke-width:1.0;stroke-dasharray:2.0,2.0;" x1="79.5" x2="412.5" y1="608.4688" y2="608.4688"/><text fill="#000000" font-family="sans-serif" font-size="13" font-weight="bold" lengthAdjust="spacing" textLength="14" x="91.5" y="603.7139">15</text><text fill="#000000" font-family="sans-serif" font-size="13" lengthAdjust="spacing" textLength="158" x="109.5" y="603.7139">displays operation success</text><!--SRC=[ZLHBZjim3Dtx54HMxG2zG1O5WXG51iXiciu158bEXCYIAz8P-FQb9TlZ94x6Mld3z-6Z93fRNwkeAgY23_eKGuN0iS62nZ-rqcTrn3st3Y6YPkMFRbf09sN2X_L7A9KZB0hLSF1DTS0epvf3XDM-9SOADgQotX979LzNe0WslzuAeM6hRQqymsgzhr7Rijq5hTW6__wQwjvVdvTjW-SOdCDCk_txPvV4xKKn9fK2-YKlyEEdCC9Q-ldN83411w3C20fSJveW8ubO63a4B1IToilB6dJ4hc0W6E2WHrFNI85s9YRoHh5A9GPdzQQUkQsH1YYQX8Lln8BP70uHBpQfVt_kFdjOo_J2notR8YS2RGwLdPg_0tp6926TK9_tCdUaOMYFJ0zhvClZX0ShOWdXWZ6NFQhQTlgG3S1kEk6vXTvqlFUYdKPAhqjWdBIeszAYkIgV99WRkFexpQQqtYoFvejOdiVnMwI-J66s-zdE2PoSv-9XoxFRFk-v6Oe5kv_GoHr443n2A85F-4bqdz3yhh-pqBFAzbUfy_vKolajRQnoHWkyzVMqy08PpHXBjLEjD5LZx0qrMYFHRIhf8hjv_my0]--></g></svg>