<?xml version="1.0" encoding="us-ascii" standalone="no"?><svg xmlns="http://www.w3.org/2000/svg" xmlns:xlink="http://www.w3.org/1999/xlink" contentStyleType="text/css" height="502px" preserveAspectRatio="none" style="width:417px;height:502px;background:#FFFFFF;" version="1.1" viewBox="0 0 417 502" width="417px" zoomAndPan="magnify"><defs/><g><text fill="#000000" font-family="sans-serif" font-size="14" font-weight="bold" lengthAdjust="spacing" textLength="284" x="65.75" y="27.6738">System Sequence Diagram (SSD) - US006</text><rect fill="#FFFFFF" height="277.2344" style="stroke:#181818;stroke-width:1.0;" width="10" x="69.5" y="127.2813"/><rect fill="#FFFFFF" height="28.5234" style="stroke:#181818;stroke-width:1.0;" width="10" x="374.5" y="147.8047"/><rect fill="#FFFFFF" height="28.5234" style="stroke:#181818;stroke-width:1.0;" width="10" x="374.5" y="204.8516"/><rect fill="#FFFFFF" height="28.5234" style="stroke:#181818;stroke-width:1.0;" width="10" x="374.5" y="261.8984"/><rect fill="#FFFFFF" height="28.5234" style="stroke:#181818;stroke-width:1.0;" width="10" x="374.5" y="318.9453"/><rect fill="#FFFFFF" height="37.5234" style="stroke:#181818;stroke-width:1.0;" width="10" x="374.5" y="375.9922"/><line style="stroke:#181818;stroke-width:0.5;stroke-dasharray:5.0,5.0;" x1="74" x2="74" y1="117.2813" y2="422.5156"/><line style="stroke:#181818;stroke-width:0.5;stroke-dasharray:5.0,5.0;" x1="379.5" x2="379.5" y1="117.2813" y2="422.5156"/><text fill="#000000" font-family="sans-serif" font-size="14" lengthAdjust="spacing" textLength="133" x="5" y="114.3145">System Administrator</text><ellipse cx="74.5" cy="50.1406" fill="#E2E2F0" rx="8" ry="8" style="stroke:#181818;stroke-width:0.5;"/><path d="M74.5,58.1406 L74.5,85.1406 M61.5,66.1406 L87.5,66.1406 M74.5,85.1406 L61.5,100.1406 M74.5,85.1406 L87.5,100.1406 " fill="none" style="stroke:#181818;stroke-width:0.5;"/><text fill="#000000" font-family="sans-serif" font-size="14" lengthAdjust="spacing" textLength="133" x="5" y="434.1895">System Administrator</text><ellipse cx="74.5" cy="445.6563" fill="#E2E2F0" rx="8" ry="8" style="stroke:#181818;stroke-width:0.5;"/><path d="M74.5,453.6563 L74.5,480.6563 M61.5,461.6563 L87.5,461.6563 M74.5,480.6563 L61.5,495.6563 M74.5,480.6563 L87.5,495.6563 " fill="none" style="stroke:#181818;stroke-width:0.5;"/><rect fill="#E2E2F0" height="29.6406" rx="2.5" ry="2.5" style="stroke:#181818;stroke-width:0.5;" width="64" x="347.5" y="86.6406"/><text fill="#000000" font-family="sans-serif" font-size="14" lengthAdjust="spacing" textLength="50" x="354.5" y="106.3145">:System</text><rect fill="#E2E2F0" height="29.6406" rx="2.5" ry="2.5" style="stroke:#181818;stroke-width:0.5;" width="64" x="347.5" y="421.5156"/><text fill="#000000" font-family="sans-serif" font-size="14" lengthAdjust="spacing" textLength="50" x="354.5" y="441.1895">:System</text><rect fill="#FFFFFF" height="277.2344" style="stroke:#181818;stroke-width:1.0;" width="10" x="69.5" y="127.2813"/><rect fill="#FFFFFF" height="28.5234" style="stroke:#181818;stroke-width:1.0;" width="10" x="374.5" y="147.8047"/><rect fill="#FFFFFF" height="28.5234" style="stroke:#181818;stroke-width:1.0;" width="10" x="374.5" y="204.8516"/><rect fill="#FFFFFF" height="28.5234" style="stroke:#181818;stroke-width:1.0;" width="10" x="374.5" y="261.8984"/><rect fill="#FFFFFF" height="28.5234" style="stroke:#181818;stroke-width:1.0;" width="10" x="374.5" y="318.9453"/><rect fill="#FFFFFF" height="37.5234" style="stroke:#181818;stroke-width:1.0;" width="10" x="374.5" y="375.9922"/><polygon fill="#181818" points="362.5,143.8047,372.5,147.8047,362.5,151.8047,366.5,147.8047" style="stroke:#181818;stroke-width:1.0;"/><line style="stroke:#181818;stroke-width:1.0;" x1="79.5" x2="368.5" y1="147.8047" y2="147.8047"/><text fill="#000000" font-family="sans-serif" font-size="13" font-weight="bold" lengthAdjust="spacing" textLength="7" x="86.5" y="143.0498">1</text><text fill="#000000" font-family="sans-serif" font-size="13" lengthAdjust="spacing" textLength="170" x="97.5" y="143.0498">requests to specify a location</text><polygon fill="#181818" points="90.5,172.3281,80.5,176.3281,90.5,180.3281,86.5,176.3281" style="stroke:#181818;stroke-width:1.0;"/><line style="stroke:#181818;stroke-width:1.0;stroke-dasharray:2.0,2.0;" x1="84.5" x2="378.5" y1="176.3281" y2="176.3281"/><text fill="#000000" font-family="sans-serif" font-size="13" font-weight="bold" lengthAdjust="spacing" textLength="7" x="96.5" y="171.5732">2</text><text fill="#000000" font-family="sans-serif" font-size="13" lengthAdjust="spacing" textLength="79" x="107.5" y="171.5732">requests data</text><polygon fill="#181818" points="362.5,200.8516,372.5,204.8516,362.5,208.8516,366.5,204.8516" style="stroke:#181818;stroke-width:1.0;"/><line style="stroke:#181818;stroke-width:1.0;" x1="79.5" x2="368.5" y1="204.8516" y2="204.8516"/><text fill="#000000" font-family="sans-serif" font-size="13" font-weight="bold" lengthAdjust="spacing" textLength="7" x="86.5" y="200.0967">3</text><text fill="#000000" font-family="sans-serif" font-size="13" lengthAdjust="spacing" textLength="233" x="97.5" y="200.0967">types requested data (stateAbbreviation)</text><polygon fill="#181818" points="90.5,229.375,80.5,233.375,90.5,237.375,86.5,233.375" style="stroke:#181818;stroke-width:1.0;"/><line style="stroke:#181818;stroke-width:1.0;stroke-dasharray:2.0,2.0;" x1="84.5" x2="378.5" y1="233.375" y2="233.375"/><text fill="#000000" font-family="sans-serif" font-size="13" font-weight="bold" lengthAdjust="spacing" textLength="7" x="96.5" y="228.6201">4</text><text fill="#000000" font-family="sans-serif" font-size="13" lengthAdjust="spacing" textLength="127" x="107.5" y="228.6201">shows requested data</text><polygon fill="#181818" points="362.5,257.8984,372.5,261.8984,362.5,265.8984,366.5,261.8984" style="stroke:#181818;stroke-width:1.0;"/><line style="stroke:#181818;stroke-width:1.0;" x1="79.5" x2="368.5" y1="261.8984" y2="261.8984"/><text fill="#000000" font-family="sans-serif" font-size="13" font-weight="bold" lengthAdjust="spacing" textLength="7" x="86.5" y="257.1436">5</text><text fill="#000000" font-family="sans-serif" font-size="13" lengthAdjust="spacing" textLength="75" x="97.5" y="257.1436">submits data</text><polygon fill="#181818" points="90.5,286.4219,80.5,290.4219,90.5,294.4219,86.5,290.4219" style="stroke:#181818;stroke-width:1.0;"/><line style="stroke:#181818;stroke-width:1.0;stroke-dasharray:2.0,2.0;" x1="84.5" x2="378.5" y1="290.4219" y2="290.4219"/><text fill="#000000" font-family="sans-serif" font-size="13" font-weight="bold" lengthAdjust="spacing" textLength="7" x="96.5" y="285.667">6</text><text fill="#000000" font-family="sans-serif" font-size="13" lengthAdjust="spacing" textLength="260" x="107.5" y="285.667">shows location list and requests confirmation</text><polygon fill="#181818" points="362.5,314.9453,372.5,318.9453,362.5,322.9453,366.5,318.9453" style="stroke:#181818;stroke-width:1.0;"/><line style="stroke:#181818;stroke-width:1.0;" x1="79.5" x2="368.5" y1="318.9453" y2="318.9453"/><text fill="#000000" font-family="sans-serif" font-size="13" font-weight="bold" lengthAdjust="spacing" textLength="7" x="86.5" y="314.1904">7</text><text fill="#000000" font-family="sans-serif" font-size="13" lengthAdjust="spacing" textLength="90" x="97.5" y="314.1904">specify location</text><polygon fill="#181818" points="90.5,343.4688,80.5,347.4688,90.5,351.4688,86.5,347.4688" style="stroke:#181818;stroke-width:1.0;"/><line style="stroke:#181818;stroke-width:1.0;stroke-dasharray:2.0,2.0;" x1="84.5" x2="378.5" y1="347.4688" y2="347.4688"/><text fill="#000000" font-family="sans-serif" font-size="13" font-weight="bold" lengthAdjust="spacing" textLength="7" x="96.5" y="342.7139">8</text><text fill="#000000" font-family="sans-serif" font-size="13" lengthAdjust="spacing" textLength="124" x="107.5" y="342.7139">requests confirmation</text><polygon fill="#181818" points="362.5,371.9922,372.5,375.9922,362.5,379.9922,366.5,375.9922" style="stroke:#181818;stroke-width:1.0;"/><line style="stroke:#181818;stroke-width:1.0;" x1="79.5" x2="368.5" y1="375.9922" y2="375.9922"/><text fill="#000000" font-family="sans-serif" font-size="13" font-weight="bold" lengthAdjust="spacing" textLength="7" x="86.5" y="371.2373">9</text><text fill="#000000" font-family="sans-serif" font-size="13" lengthAdjust="spacing" textLength="98" x="97.5" y="371.2373">confirms location</text><polygon fill="#181818" points="85.5,400.5156,75.5,404.5156,85.5,408.5156,81.5,404.5156" style="stroke:#181818;stroke-width:1.0;"/><line style="stroke:#181818;stroke-width:1.0;stroke-dasharray:2.0,2.0;" x1="79.5" x2="373.5" y1="404.5156" y2="404.5156"/><text fill="#000000" font-family="sans-serif" font-size="13" font-weight="bold" lengthAdjust="spacing" textLength="14" x="91.5" y="399.7607">10</text><text fill="#000000" font-family="sans-serif" font-size="13" lengthAdjust="spacing" textLength="158" x="109.5" y="399.7607">displays operation success</text><!--SRC=[bP91Zi8m34NtEON52XP8h5Ym60c96rHp03Sr7OisoSGkgBUVq3R0C0DIkqgTxvUVxyY9NS28BGIq9wofqBuXY6GLNTsGaPj0lh3o5tOr7B4HCaPPaxJeHQc5WhuxSfRWm5XVvSkYEAnW3P_5PhCr1ZlrhcjBYcbjrKTOJ9txgcN7eX5JTG4eOyMaKvKj1tGAYzqe7hR7vO3XCofDUWFJD_p2-YDRswNh97EY0kf10ba-ze3GU8lAtWsDDrYcPze4MIVU27x0LQWu22jwsV_NZVQ194Ee6YYm54tT-xACTER1rcgUhrqQaByySsUwIv2kRFdnQdE26HtaNA59KmLqrJqmwzsHOtkFVLPmUNHl1tUjlGdfjPN_xUITrubD8FbjQsvq5Kjei1VmWU8OdtJMaiXpJjDh_m40]--></g></svg>