<?xml version="1.0" encoding="UTF-8" standalone="no"?><svg xmlns="http://www.w3.org/2000/svg" xmlns:xlink="http://www.w3.org/1999/xlink" contentStyleType="text/css" height="284px" preserveAspectRatio="none" style="width:485px;height:284px;background:#FFFFFF;" version="1.1" viewBox="0 0 485 284" width="485px" zoomAndPan="magnify"><defs/><g><rect fill="none" height="27.6094" id="_title" style="stroke:none;stroke-width:1.0;" width="294" x="94.75" y="10"/><text fill="#000000" font-family="sans-serif" font-size="14" font-weight="bold" lengthAdjust="spacing" textLength="284" x="99.75" y="29.5332">System Sequence Diagram (SSD) - US606</text><rect fill="#FFFFFF" height="61.7031" style="stroke:#181818;stroke-width:1.0;" width="10" x="17.5" y="131.2188"/><rect fill="#FFFFFF" height="30.3516" style="stroke:#181818;stroke-width:1.0;" width="10" x="442.5" y="153.5703"/><line style="stroke:#181818;stroke-width:0.5;stroke-dasharray:5.0,5.0;" x1="22" x2="22" y1="121.2188" y2="201.9219"/><line style="stroke:#181818;stroke-width:0.5;stroke-dasharray:5.0,5.0;" x1="447.5" x2="447.5" y1="121.2188" y2="201.9219"/><text fill="#000000" font-family="sans-serif" font-size="14" lengthAdjust="spacing" textLength="29" x="5" y="118.1426">User</text><ellipse cx="22.5" cy="52.1094" fill="#E2E2F0" rx="8" ry="8" style="stroke:#181818;stroke-width:0.5;"/><path d="M22.5,60.1094 L22.5,87.1094 M9.5,68.1094 L35.5,68.1094 M22.5,87.1094 L9.5,102.1094 M22.5,87.1094 L35.5,102.1094 " fill="none" style="stroke:#181818;stroke-width:0.5;"/><text fill="#000000" font-family="sans-serif" font-size="14" lengthAdjust="spacing" textLength="29" x="5" y="215.4551">User</text><ellipse cx="22.5" cy="227.0313" fill="#E2E2F0" rx="8" ry="8" style="stroke:#181818;stroke-width:0.5;"/><path d="M22.5,235.0313 L22.5,262.0313 M9.5,243.0313 L35.5,243.0313 M22.5,262.0313 L9.5,277.0313 M22.5,262.0313 L35.5,277.0313 " fill="none" style="stroke:#181818;stroke-width:0.5;"/><rect fill="#E2E2F0" height="31.6094" rx="2.5" ry="2.5" style="stroke:#181818;stroke-width:0.5;" width="64" x="415.5" y="88.6094"/><text fill="#000000" font-family="sans-serif" font-size="14" lengthAdjust="spacing" textLength="50" x="422.5" y="110.1426">:System</text><rect fill="#E2E2F0" height="31.6094" rx="2.5" ry="2.5" style="stroke:#181818;stroke-width:0.5;" width="64" x="415.5" y="200.9219"/><text fill="#000000" font-family="sans-serif" font-size="14" lengthAdjust="spacing" textLength="50" x="422.5" y="222.4551">:System</text><rect fill="#FFFFFF" height="61.7031" style="stroke:#181818;stroke-width:1.0;" width="10" x="17.5" y="131.2188"/><rect fill="#FFFFFF" height="30.3516" style="stroke:#181818;stroke-width:1.0;" width="10" x="442.5" y="153.5703"/><polygon fill="#181818" points="430.5,149.5703,440.5,153.5703,430.5,157.5703,434.5,153.5703" style="stroke:#181818;stroke-width:1.0;"/><line style="stroke:#181818;stroke-width:1.0;" x1="27.5" x2="436.5" y1="153.5703" y2="153.5703"/><text fill="#000000" font-family="sans-serif" font-size="13" font-weight="bold" lengthAdjust="spacing" textLength="7" x="34.5" y="148.7139">1</text><text fill="#000000" font-family="sans-serif" font-size="13" lengthAdjust="spacing" textLength="171" x="45.5" y="148.7139">Pressiona uma tecla (WASD)</text><polygon fill="#181818" points="38.5,179.9219,28.5,183.9219,38.5,187.9219,34.5,183.9219" style="stroke:#181818;stroke-width:1.0;"/><line style="stroke:#181818;stroke-width:1.0;stroke-dasharray:2.0,2.0;" x1="32.5" x2="446.5" y1="183.9219" y2="183.9219"/><text fill="#000000" font-family="sans-serif" font-size="13" font-weight="bold" lengthAdjust="spacing" textLength="7" x="44.5" y="179.0654">2</text><text fill="#000000" font-family="sans-serif" font-size="13" lengthAdjust="spacing" textLength="380" x="55.5" y="179.0654">Mostra visualmente a movimentação do robot na respetiva direção</text><!--MD5=[6e07553fcbeaf6b3d4abb859b604507c]
@startuml
skinparam packageStyle rectangle
skinparam shadowing false

title System Sequence Diagram (SSD) - US606

autonumber

actor "User" as Admin
participant ":System" as System

activate Admin

        Admin -> System : Pressiona uma tecla (WASD)
    activate System

        System - -> Admin : Mostra visualmente a movimentação do robot na respetiva direção
    deactivate System

@enduml

PlantUML version 1.2022.7(Mon Aug 22 18:01:30 BST 2022)
(GPL source distribution)
Java Runtime: Java(TM) SE Runtime Environment
JVM: Java HotSpot(TM) 64-Bit Server VM
Default Encoding: Cp1252
Language: pt
Country: PT
--></g></svg>