<?xml version="1.0" encoding="us-ascii" standalone="no"?><svg xmlns="http://www.w3.org/2000/svg" xmlns:xlink="http://www.w3.org/1999/xlink" contentStyleType="text/css" height="683px" preserveAspectRatio="none" style="width:746px;height:683px;background:#FFFFFF;" version="1.1" viewBox="0 0 746 683" width="746px" zoomAndPan="magnify"><defs/><g><rect fill="#FFFFFF" height="199.6641" style="stroke:#181818;stroke-width:1.0;" width="10" x="258" y="152.375"/><rect fill="#FFFFFF" height="199.6641" style="stroke:#181818;stroke-width:1.0;" width="10" x="258" y="394.8516"/><rect fill="#FFFFFF" height="28.5234" style="stroke:#181818;stroke-width:1.0;" width="10" x="406.5" y="180.8984"/><rect fill="#FFFFFF" height="28.5234" style="stroke:#181818;stroke-width:1.0;" width="10" x="406.5" y="423.375"/><rect fill="#FFFFFF" height="28.5234" style="stroke:#181818;stroke-width:1.0;" width="10" x="513.5" y="237.9453"/><rect fill="#FFFFFF" height="28.5234" style="stroke:#181818;stroke-width:1.0;" width="10" x="513.5" y="480.4219"/><rect fill="#FFFFFF" height="28.5234" style="stroke:#181818;stroke-width:1.0;" width="10" x="638.5" y="294.9922"/><rect fill="#FFFFFF" height="28.5234" style="stroke:#181818;stroke-width:1.0;" width="10" x="638.5" y="537.4688"/><rect fill="none" height="548.2344" style="stroke:#000000;stroke-width:1.5;" width="737" x="3" y="68.2813"/><rect fill="none" height="517.7109" style="stroke:#000000;stroke-width:1.5;" width="727" x="3" y="91.8047"/><rect fill="none" height="487.1875" style="stroke:#000000;stroke-width:1.5;" width="717" x="3" y="115.3281"/><line style="stroke:#181818;stroke-width:0.5;stroke-dasharray:5.0,5.0;" x1="263" x2="263" y1="51.2813" y2="633.5156"/><line style="stroke:#181818;stroke-width:0.5;stroke-dasharray:5.0,5.0;" x1="411" x2="411" y1="51.2813" y2="633.5156"/><line style="stroke:#181818;stroke-width:0.5;stroke-dasharray:5.0,5.0;" x1="518" x2="518" y1="51.2813" y2="633.5156"/><line style="stroke:#181818;stroke-width:0.5;stroke-dasharray:5.0,5.0;" x1="643" x2="643" y1="51.2813" y2="633.5156"/><rect fill="#E3E3E3" height="29.6406" rx="2.5" ry="2.5" style="stroke:#181818;stroke-width:0.5;" width="180" x="173" y="20.6406"/><text fill="#000000" font-family="sans-serif" font-size="14" lengthAdjust="spacing" textLength="166" x="180" y="40.3145">:SpecifyLocationController</text><rect fill="#E3E3E3" height="29.6406" rx="2.5" ry="2.5" style="stroke:#181818;stroke-width:0.5;" width="180" x="173" y="632.5156"/><text fill="#000000" font-family="sans-serif" font-size="14" lengthAdjust="spacing" textLength="166" x="180" y="652.1895">:SpecifyLocationController</text><rect fill="#E3E3E3" height="29.6406" rx="2.5" ry="2.5" style="stroke:#181818;stroke-width:0.5;" width="97" x="363" y="20.6406"/><text fill="#000000" font-family="sans-serif" font-size="14" lengthAdjust="spacing" textLength="83" x="370" y="40.3145">:Repositories</text><rect fill="#E3E3E3" height="29.6406" rx="2.5" ry="2.5" style="stroke:#181818;stroke-width:0.5;" width="97" x="363" y="632.5156"/><text fill="#000000" font-family="sans-serif" font-size="14" lengthAdjust="spacing" textLength="83" x="370" y="652.1895">:Repositories</text><rect fill="#E3E3E3" height="45.2813" rx="2.5" ry="2.5" style="stroke:#181818;stroke-width:0.5;" width="97" x="470" y="5"/><text fill="#000000" font-family="sans-serif" font-size="14" lengthAdjust="spacing" textLength="74" x="481.5" y="24.6738">repositories</text><text fill="#000000" font-family="sans-serif" font-size="14" lengthAdjust="spacing" textLength="83" x="477" y="40.3145">:Repositories</text><rect fill="#E3E3E3" height="45.2813" rx="2.5" ry="2.5" style="stroke:#181818;stroke-width:0.5;" width="97" x="470" y="632.5156"/><text fill="#000000" font-family="sans-serif" font-size="14" lengthAdjust="spacing" textLength="74" x="481.5" y="652.1895">repositories</text><text fill="#000000" font-family="sans-serif" font-size="14" lengthAdjust="spacing" textLength="83" x="477" y="667.8301">:Repositories</text><rect fill="#E3E3E3" height="45.2813" rx="2.5" ry="2.5" style="stroke:#181818;stroke-width:0.5;" width="133" x="577" y="5"/><text fill="#000000" font-family="sans-serif" font-size="14" lengthAdjust="spacing" textLength="114" x="586.5" y="24.6738">agencyRepository</text><text fill="#000000" font-family="sans-serif" font-size="14" lengthAdjust="spacing" textLength="119" x="584" y="40.3145">:AgencyRepository</text><rect fill="#E3E3E3" height="45.2813" rx="2.5" ry="2.5" style="stroke:#181818;stroke-width:0.5;" width="133" x="577" y="632.5156"/><text fill="#000000" font-family="sans-serif" font-size="14" lengthAdjust="spacing" textLength="114" x="586.5" y="652.1895">agencyRepository</text><text fill="#000000" font-family="sans-serif" font-size="14" lengthAdjust="spacing" textLength="119" x="584" y="667.8301">:AgencyRepository</text><rect fill="#FFFFFF" height="199.6641" style="stroke:#181818;stroke-width:1.0;" width="10" x="258" y="152.375"/><rect fill="#FFFFFF" height="199.6641" style="stroke:#181818;stroke-width:1.0;" width="10" x="258" y="394.8516"/><rect fill="#FFFFFF" height="28.5234" style="stroke:#181818;stroke-width:1.0;" width="10" x="406.5" y="180.8984"/><rect fill="#FFFFFF" height="28.5234" style="stroke:#181818;stroke-width:1.0;" width="10" x="406.5" y="423.375"/><rect fill="#FFFFFF" height="28.5234" style="stroke:#181818;stroke-width:1.0;" width="10" x="513.5" y="237.9453"/><rect fill="#FFFFFF" height="28.5234" style="stroke:#181818;stroke-width:1.0;" width="10" x="513.5" y="480.4219"/><rect fill="#FFFFFF" height="28.5234" style="stroke:#181818;stroke-width:1.0;" width="10" x="638.5" y="294.9922"/><rect fill="#FFFFFF" height="28.5234" style="stroke:#181818;stroke-width:1.0;" width="10" x="638.5" y="537.4688"/><path d="M3,68.2813 L179,68.2813 L179,74.8047 L169,84.8047 L3,84.8047 L3,68.2813 " fill="#EEEEEE" style="stroke:#000000;stroke-width:1.5;"/><rect fill="none" height="548.2344" style="stroke:#000000;stroke-width:1.5;" width="737" x="3" y="68.2813"/><text fill="#000000" font-family="sans-serif" font-size="13" font-weight="bold" lengthAdjust="spacing" textLength="131" x="18" y="81.0498">Find Stores Location</text><path d="M3,91.8047 L76,91.8047 L76,98.3281 L66,108.3281 L3,108.3281 L3,91.8047 " fill="#EEEEEE" style="stroke:#000000;stroke-width:1.5;"/><rect fill="none" height="517.7109" style="stroke:#000000;stroke-width:1.5;" width="727" x="3" y="91.8047"/><text fill="#000000" font-family="sans-serif" font-size="13" font-weight="bold" lengthAdjust="spacing" textLength="28" x="18" y="104.5732">loop</text><text fill="#000000" font-family="sans-serif" font-size="11" font-weight="bold" lengthAdjust="spacing" textLength="142" x="91" y="103.7627">[until find stores location]</text><path d="M3,115.3281 L64,115.3281 L64,121.8516 L54,131.8516 L3,131.8516 L3,115.3281 " fill="#EEEEEE" style="stroke:#000000;stroke-width:1.5;"/><rect fill="none" height="487.1875" style="stroke:#000000;stroke-width:1.5;" width="717" x="3" y="115.3281"/><text fill="#000000" font-family="sans-serif" font-size="13" font-weight="bold" lengthAdjust="spacing" textLength="16" x="18" y="128.0967">alt</text><text fill="#000000" font-family="sans-serif" font-size="11" font-weight="bold" lengthAdjust="spacing" textLength="98" x="79" y="127.2861">[successful case]</text><polygon fill="#181818" points="246,148.375,256,152.375,246,156.375,250,152.375" style="stroke:#181818;stroke-width:1.0;"/><line style="stroke:#181818;stroke-width:1.0;" x1="0" x2="252" y1="152.375" y2="152.375"/><text fill="#000000" font-family="sans-serif" font-size="13" font-weight="bold" lengthAdjust="spacing" textLength="14" x="7" y="147.6201">15</text><text fill="#000000" font-family="sans-serif" font-size="13" lengthAdjust="spacing" textLength="214" x="25" y="147.6201">findStoresLocation(stateAbbreviation)</text><polygon fill="#181818" points="394.5,176.8984,404.5,180.8984,394.5,184.8984,398.5,180.8984" style="stroke:#181818;stroke-width:1.0;"/><line style="stroke:#181818;stroke-width:1.0;" x1="268" x2="400.5" y1="180.8984" y2="180.8984"/><text fill="#000000" font-family="sans-serif" font-size="13" font-weight="bold" lengthAdjust="spacing" textLength="25" x="275" y="176.1436">15.1</text><text fill="#000000" font-family="sans-serif" font-size="13" lengthAdjust="spacing" textLength="75" x="304" y="176.1436">getInstance()</text><polygon fill="#181818" points="279,205.4219,269,209.4219,279,213.4219,275,209.4219" style="stroke:#181818;stroke-width:1.0;"/><line style="stroke:#181818;stroke-width:1.0;stroke-dasharray:2.0,2.0;" x1="273" x2="410.5" y1="209.4219" y2="209.4219"/><text fill="#000000" font-family="sans-serif" font-size="13" font-weight="bold" lengthAdjust="spacing" textLength="25" x="285" y="204.667">15.2</text><text fill="#000000" font-family="sans-serif" font-size="13" lengthAdjust="spacing" textLength="67" x="314" y="204.667">repositories</text><polygon fill="#181818" points="501.5,233.9453,511.5,237.9453,501.5,241.9453,505.5,237.9453" style="stroke:#181818;stroke-width:1.0;"/><line style="stroke:#181818;stroke-width:1.0;" x1="268" x2="507.5" y1="237.9453" y2="237.9453"/><text fill="#000000" font-family="sans-serif" font-size="13" font-weight="bold" lengthAdjust="spacing" textLength="25" x="275" y="233.1904">15.3</text><text fill="#000000" font-family="sans-serif" font-size="13" lengthAdjust="spacing" textLength="137" x="304" y="233.1904">getLocationRepository()</text><polygon fill="#181818" points="279,262.4688,269,266.4688,279,270.4688,275,266.4688" style="stroke:#181818;stroke-width:1.0;"/><line style="stroke:#181818;stroke-width:1.0;" x1="273" x2="517.5" y1="266.4688" y2="266.4688"/><text fill="#000000" font-family="sans-serif" font-size="13" font-weight="bold" lengthAdjust="spacing" textLength="25" x="285" y="261.7139">15.4</text><text fill="#000000" font-family="sans-serif" font-size="13" lengthAdjust="spacing" textLength="111" x="314" y="261.7139">LocationRepository</text><polygon fill="#181818" points="626.5,290.9922,636.5,294.9922,626.5,298.9922,630.5,294.9922" style="stroke:#181818;stroke-width:1.0;"/><line style="stroke:#181818;stroke-width:1.0;" x1="268" x2="632.5" y1="294.9922" y2="294.9922"/><text fill="#000000" font-family="sans-serif" font-size="13" font-weight="bold" lengthAdjust="spacing" textLength="25" x="275" y="290.2373">15.5</text><text fill="#000000" font-family="sans-serif" font-size="13" lengthAdjust="spacing" textLength="214" x="304" y="290.2373">findStoresLocation(stateAbbreviation)</text><polygon fill="#181818" points="279,319.5156,269,323.5156,279,327.5156,275,323.5156" style="stroke:#181818;stroke-width:1.0;"/><line style="stroke:#181818;stroke-width:1.0;stroke-dasharray:2.0,2.0;" x1="273" x2="642.5" y1="323.5156" y2="323.5156"/><text fill="#000000" font-family="sans-serif" font-size="13" font-weight="bold" lengthAdjust="spacing" textLength="25" x="285" y="318.7607">15.6</text><text fill="#000000" font-family="sans-serif" font-size="13" lengthAdjust="spacing" textLength="45" x="314" y="318.7607">location</text><polygon fill="#181818" points="11,348.0391,1,352.0391,11,356.0391,7,352.0391" style="stroke:#181818;stroke-width:1.0;"/><line style="stroke:#181818;stroke-width:1.0;stroke-dasharray:2.0,2.0;" x1="5" x2="262" y1="352.0391" y2="352.0391"/><text fill="#000000" font-family="sans-serif" font-size="13" font-weight="bold" lengthAdjust="spacing" textLength="25" x="17" y="347.2842">15.7</text><text fill="#000000" font-family="sans-serif" font-size="13" lengthAdjust="spacing" textLength="45" x="46" y="347.2842">location</text><line style="stroke:#000000;stroke-width:1.0;stroke-dasharray:2.0,2.0;" x1="3" x2="720" y1="361.0391" y2="361.0391"/><text fill="#000000" font-family="sans-serif" font-size="11" font-weight="bold" lengthAdjust="spacing" textLength="112" x="8" y="370.9971">[unsuccessful case]</text><polygon fill="#181818" points="246,390.8516,256,394.8516,246,398.8516,250,394.8516" style="stroke:#181818;stroke-width:1.0;"/><line style="stroke:#181818;stroke-width:1.0;" x1="0" x2="252" y1="394.8516" y2="394.8516"/><text fill="#000000" font-family="sans-serif" font-size="13" font-weight="bold" lengthAdjust="spacing" textLength="14" x="7" y="390.0967">15</text><text fill="#000000" font-family="sans-serif" font-size="13" lengthAdjust="spacing" textLength="214" x="25" y="390.0967">findStoresLocation(stateAbbreviation)</text><polygon fill="#181818" points="394.5,419.375,404.5,423.375,394.5,427.375,398.5,423.375" style="stroke:#181818;stroke-width:1.0;"/><line style="stroke:#181818;stroke-width:1.0;" x1="268" x2="400.5" y1="423.375" y2="423.375"/><text fill="#000000" font-family="sans-serif" font-size="13" font-weight="bold" lengthAdjust="spacing" textLength="25" x="275" y="418.6201">15.1</text><text fill="#000000" font-family="sans-serif" font-size="13" lengthAdjust="spacing" textLength="75" x="304" y="418.6201">getInstance()</text><polygon fill="#181818" points="279,447.8984,269,451.8984,279,455.8984,275,451.8984" style="stroke:#181818;stroke-width:1.0;"/><line style="stroke:#181818;stroke-width:1.0;stroke-dasharray:2.0,2.0;" x1="273" x2="410.5" y1="451.8984" y2="451.8984"/><text fill="#000000" font-family="sans-serif" font-size="13" font-weight="bold" lengthAdjust="spacing" textLength="25" x="285" y="447.1436">15.2</text><text fill="#000000" font-family="sans-serif" font-size="13" lengthAdjust="spacing" textLength="67" x="314" y="447.1436">repositories</text><polygon fill="#181818" points="501.5,476.4219,511.5,480.4219,501.5,484.4219,505.5,480.4219" style="stroke:#181818;stroke-width:1.0;"/><line style="stroke:#181818;stroke-width:1.0;" x1="268" x2="507.5" y1="480.4219" y2="480.4219"/><text fill="#000000" font-family="sans-serif" font-size="13" font-weight="bold" lengthAdjust="spacing" textLength="25" x="275" y="475.667">15.3</text><text fill="#000000" font-family="sans-serif" font-size="13" lengthAdjust="spacing" textLength="137" x="304" y="475.667">getLocationRepository()</text><polygon fill="#181818" points="279,504.9453,269,508.9453,279,512.9453,275,508.9453" style="stroke:#181818;stroke-width:1.0;"/><line style="stroke:#181818;stroke-width:1.0;" x1="273" x2="517.5" y1="508.9453" y2="508.9453"/><text fill="#000000" font-family="sans-serif" font-size="13" font-weight="bold" lengthAdjust="spacing" textLength="25" x="285" y="504.1904">15.4</text><text fill="#000000" font-family="sans-serif" font-size="13" lengthAdjust="spacing" textLength="111" x="314" y="504.1904">LocationRepository</text><polygon fill="#181818" points="626.5,533.4688,636.5,537.4688,626.5,541.4688,630.5,537.4688" style="stroke:#181818;stroke-width:1.0;"/><line style="stroke:#181818;stroke-width:1.0;" x1="268" x2="632.5" y1="537.4688" y2="537.4688"/><text fill="#000000" font-family="sans-serif" font-size="13" font-weight="bold" lengthAdjust="spacing" textLength="25" x="275" y="532.7139">15.5</text><text fill="#000000" font-family="sans-serif" font-size="13" lengthAdjust="spacing" textLength="214" x="304" y="532.7139">findStoresLocation(stateAbbreviation)</text><polygon fill="#181818" points="279,561.9922,269,565.9922,279,569.9922,275,565.9922" style="stroke:#181818;stroke-width:1.0;"/><line style="stroke:#181818;stroke-width:1.0;stroke-dasharray:2.0,2.0;" x1="273" x2="642.5" y1="565.9922" y2="565.9922"/><text fill="#000000" font-family="sans-serif" font-size="13" font-weight="bold" lengthAdjust="spacing" textLength="25" x="285" y="561.2373">15.6</text><text fill="#000000" font-family="sans-serif" font-size="13" lengthAdjust="spacing" textLength="279" x="314" y="561.2373">couldn't find location with that State Abbreviation</text><polygon fill="#181818" points="11,590.5156,1,594.5156,11,598.5156,7,594.5156" style="stroke:#181818;stroke-width:1.0;"/><line style="stroke:#181818;stroke-width:1.0;stroke-dasharray:2.0,2.0;" x1="5" x2="262" y1="594.5156" y2="594.5156"/><text fill="#000000" font-family="sans-serif" font-size="13" font-weight="bold" lengthAdjust="spacing" textLength="7" x="17" y="589.7607">8</text><text fill="#000000" font-family="sans-serif" font-size="13" lengthAdjust="spacing" textLength="142" x="28" y="589.7607">asks to submit new data</text><!--SRC=[jLN1QkCm4BthAuPUjZraeOU5OfQ5KbXOw24uFVOoaIUEY2mPQToGlrzLgRsodTHEkzN9QDxCcoVDi_nEcHeTLb1PO-NMsOg0NKF2Tv4QvGvBMl514pYIZARKAS1liR1xPKhOeFOa13PiJLEjoGaH8Aoagj4mN6MhcgJQ71wjH5RMF5Z3pcfDxWhGmyDJ_ZX8oAcsNh5rYdp4vCi-mYM0PpF6f_5-Pj1avA5BE8Ji-y5Mh33SJFN1xGzHEjlKy5kP0bOXJXvQUK9RMqDZM6dOlCRzCQxRE6e6tqX9tcyQ3HB3wIr-nNE0BAOSAxO5hpqZq_rwxUX5nPsRVZFVRmKa2oMhbv1nFDbUA5sHB_3comnAuZycq1X9rpSdCxgYuIhEbioNi7XJalNlu1Iwe5b5spxJUh7Zzdp-NT9KxxsMpXAcAEZaZDccH4spjTA6mpPt2iuA7K_lAVeXAhcyRbZVqJTDydEnQCTwJi4uhwzx57uemK53aqI9FHUEAIyrqjaZZCsyPxFF-McsfoxtrGNU-Z_- -e37FkspYxts5NxxWEScV2TjemlpZOylHsiQs2lU0c-HmsCJkPAsfdv3y_fA9ltkDA8rSnQUnvq7jk4HMrUAmT0U2cISPsrJYF77Nm00]--></g></svg>