<?xml version="1.0" encoding="us-ascii" standalone="no"?><svg xmlns="http://www.w3.org/2000/svg" xmlns:xlink="http://www.w3.org/1999/xlink" contentStyleType="text/css" height="653px" preserveAspectRatio="none" style="width:755px;height:653px;background:#FFFFFF;" version="1.1" viewBox="0 0 755 653" width="755px" zoomAndPan="magnify"><defs/><g><rect fill="#FFFFFF" height="199.6641" style="stroke:#181818;stroke-width:1.0;" width="10" x="277" y="128.8516"/><rect fill="#FFFFFF" height="199.6641" style="stroke:#181818;stroke-width:1.0;" width="10" x="277" y="371.3281"/><rect fill="#FFFFFF" height="28.5234" style="stroke:#181818;stroke-width:1.0;" width="10" x="425.5" y="157.375"/><rect fill="#FFFFFF" height="28.5234" style="stroke:#181818;stroke-width:1.0;" width="10" x="425.5" y="399.8516"/><rect fill="#FFFFFF" height="28.5234" style="stroke:#181818;stroke-width:1.0;" width="10" x="532.5" y="214.4219"/><rect fill="#FFFFFF" height="28.5234" style="stroke:#181818;stroke-width:1.0;" width="10" x="532.5" y="456.8984"/><rect fill="#FFFFFF" height="28.5234" style="stroke:#181818;stroke-width:1.0;" width="10" x="657.5" y="271.4688"/><rect fill="#FFFFFF" height="28.5234" style="stroke:#181818;stroke-width:1.0;" width="10" x="657.5" y="513.9453"/><rect fill="none" height="517.7109" style="stroke:#000000;stroke-width:1.5;" width="746" x="3" y="68.2813"/><rect fill="none" height="487.1875" style="stroke:#000000;stroke-width:1.5;" width="736" x="3" y="91.8047"/><line style="stroke:#181818;stroke-width:0.5;stroke-dasharray:5.0,5.0;" x1="282" x2="282" y1="51.2813" y2="602.9922"/><line style="stroke:#181818;stroke-width:0.5;stroke-dasharray:5.0,5.0;" x1="430" x2="430" y1="51.2813" y2="602.9922"/><line style="stroke:#181818;stroke-width:0.5;stroke-dasharray:5.0,5.0;" x1="537" x2="537" y1="51.2813" y2="602.9922"/><line style="stroke:#181818;stroke-width:0.5;stroke-dasharray:5.0,5.0;" x1="662" x2="662" y1="51.2813" y2="602.9922"/><rect fill="#E3E3E3" height="29.6406" rx="2.5" ry="2.5" style="stroke:#181818;stroke-width:0.5;" width="180" x="192" y="20.6406"/><text fill="#000000" font-family="sans-serif" font-size="14" lengthAdjust="spacing" textLength="166" x="199" y="40.3145">:SpecifyLocationController</text><rect fill="#E3E3E3" height="29.6406" rx="2.5" ry="2.5" style="stroke:#181818;stroke-width:0.5;" width="180" x="192" y="601.9922"/><text fill="#000000" font-family="sans-serif" font-size="14" lengthAdjust="spacing" textLength="166" x="199" y="621.666">:SpecifyLocationController</text><rect fill="#E3E3E3" height="29.6406" rx="2.5" ry="2.5" style="stroke:#181818;stroke-width:0.5;" width="97" x="382" y="20.6406"/><text fill="#000000" font-family="sans-serif" font-size="14" lengthAdjust="spacing" textLength="83" x="389" y="40.3145">:Repositories</text><rect fill="#E3E3E3" height="29.6406" rx="2.5" ry="2.5" style="stroke:#181818;stroke-width:0.5;" width="97" x="382" y="601.9922"/><text fill="#000000" font-family="sans-serif" font-size="14" lengthAdjust="spacing" textLength="83" x="389" y="621.666">:Repositories</text><rect fill="#E3E3E3" height="45.2813" rx="2.5" ry="2.5" style="stroke:#181818;stroke-width:0.5;" width="97" x="489" y="5"/><text fill="#000000" font-family="sans-serif" font-size="14" lengthAdjust="spacing" textLength="74" x="500.5" y="24.6738">repositories</text><text fill="#000000" font-family="sans-serif" font-size="14" lengthAdjust="spacing" textLength="83" x="496" y="40.3145">:Repositories</text><rect fill="#E3E3E3" height="45.2813" rx="2.5" ry="2.5" style="stroke:#181818;stroke-width:0.5;" width="97" x="489" y="601.9922"/><text fill="#000000" font-family="sans-serif" font-size="14" lengthAdjust="spacing" textLength="74" x="500.5" y="621.666">repositories</text><text fill="#000000" font-family="sans-serif" font-size="14" lengthAdjust="spacing" textLength="83" x="496" y="637.3066">:Repositories</text><rect fill="#E3E3E3" height="45.2813" rx="2.5" ry="2.5" style="stroke:#181818;stroke-width:0.5;" width="133" x="596" y="5"/><text fill="#000000" font-family="sans-serif" font-size="14" lengthAdjust="spacing" textLength="114" x="605.5" y="24.6738">agencyRepository</text><text fill="#000000" font-family="sans-serif" font-size="14" lengthAdjust="spacing" textLength="119" x="603" y="40.3145">:AgencyRepository</text><rect fill="#E3E3E3" height="45.2813" rx="2.5" ry="2.5" style="stroke:#181818;stroke-width:0.5;" width="133" x="596" y="601.9922"/><text fill="#000000" font-family="sans-serif" font-size="14" lengthAdjust="spacing" textLength="114" x="605.5" y="621.666">agencyRepository</text><text fill="#000000" font-family="sans-serif" font-size="14" lengthAdjust="spacing" textLength="119" x="603" y="637.3066">:AgencyRepository</text><rect fill="#FFFFFF" height="199.6641" style="stroke:#181818;stroke-width:1.0;" width="10" x="277" y="128.8516"/><rect fill="#FFFFFF" height="199.6641" style="stroke:#181818;stroke-width:1.0;" width="10" x="277" y="371.3281"/><rect fill="#FFFFFF" height="28.5234" style="stroke:#181818;stroke-width:1.0;" width="10" x="425.5" y="157.375"/><rect fill="#FFFFFF" height="28.5234" style="stroke:#181818;stroke-width:1.0;" width="10" x="425.5" y="399.8516"/><rect fill="#FFFFFF" height="28.5234" style="stroke:#181818;stroke-width:1.0;" width="10" x="532.5" y="214.4219"/><rect fill="#FFFFFF" height="28.5234" style="stroke:#181818;stroke-width:1.0;" width="10" x="532.5" y="456.8984"/><rect fill="#FFFFFF" height="28.5234" style="stroke:#181818;stroke-width:1.0;" width="10" x="657.5" y="271.4688"/><rect fill="#FFFFFF" height="28.5234" style="stroke:#181818;stroke-width:1.0;" width="10" x="657.5" y="513.9453"/><path d="M3,68.2813 L184,68.2813 L184,74.8047 L174,84.8047 L3,84.8047 L3,68.2813 " fill="#EEEEEE" style="stroke:#000000;stroke-width:1.5;"/><rect fill="none" height="517.7109" style="stroke:#000000;stroke-width:1.5;" width="746" x="3" y="68.2813"/><text fill="#000000" font-family="sans-serif" font-size="13" font-weight="bold" lengthAdjust="spacing" textLength="136" x="18" y="81.0498">Check Store Location</text><path d="M3,91.8047 L64,91.8047 L64,98.3281 L54,108.3281 L3,108.3281 L3,91.8047 " fill="#EEEEEE" style="stroke:#000000;stroke-width:1.5;"/><rect fill="none" height="487.1875" style="stroke:#000000;stroke-width:1.5;" width="736" x="3" y="91.8047"/><text fill="#000000" font-family="sans-serif" font-size="13" font-weight="bold" lengthAdjust="spacing" textLength="16" x="18" y="104.5732">alt</text><text fill="#000000" font-family="sans-serif" font-size="11" font-weight="bold" lengthAdjust="spacing" textLength="98" x="79" y="103.7627">[successful case]</text><polygon fill="#181818" points="265,124.8516,275,128.8516,265,132.8516,269,128.8516" style="stroke:#181818;stroke-width:1.0;"/><line style="stroke:#181818;stroke-width:1.0;" x1="0" x2="271" y1="128.8516" y2="128.8516"/><text fill="#000000" font-family="sans-serif" font-size="13" font-weight="bold" lengthAdjust="spacing" textLength="7" x="7" y="124.0967">7</text><text fill="#000000" font-family="sans-serif" font-size="13" lengthAdjust="spacing" textLength="229" x="18" y="124.0967">checkStoresLocation(stateAbbreviation)</text><polygon fill="#181818" points="413.5,153.375,423.5,157.375,413.5,161.375,417.5,157.375" style="stroke:#181818;stroke-width:1.0;"/><line style="stroke:#181818;stroke-width:1.0;" x1="287" x2="419.5" y1="157.375" y2="157.375"/><text fill="#000000" font-family="sans-serif" font-size="13" font-weight="bold" lengthAdjust="spacing" textLength="18" x="294" y="152.6201">7.1</text><text fill="#000000" font-family="sans-serif" font-size="13" lengthAdjust="spacing" textLength="75" x="316" y="152.6201">getInstance()</text><polygon fill="#181818" points="298,181.8984,288,185.8984,298,189.8984,294,185.8984" style="stroke:#181818;stroke-width:1.0;"/><line style="stroke:#181818;stroke-width:1.0;stroke-dasharray:2.0,2.0;" x1="292" x2="429.5" y1="185.8984" y2="185.8984"/><text fill="#000000" font-family="sans-serif" font-size="13" font-weight="bold" lengthAdjust="spacing" textLength="18" x="304" y="181.1436">7.2</text><text fill="#000000" font-family="sans-serif" font-size="13" lengthAdjust="spacing" textLength="67" x="326" y="181.1436">repositories</text><polygon fill="#181818" points="520.5,210.4219,530.5,214.4219,520.5,218.4219,524.5,214.4219" style="stroke:#181818;stroke-width:1.0;"/><line style="stroke:#181818;stroke-width:1.0;" x1="287" x2="526.5" y1="214.4219" y2="214.4219"/><text fill="#000000" font-family="sans-serif" font-size="13" font-weight="bold" lengthAdjust="spacing" textLength="18" x="294" y="209.667">7.3</text><text fill="#000000" font-family="sans-serif" font-size="13" lengthAdjust="spacing" textLength="132" x="316" y="209.667">getAgencyRepository()</text><polygon fill="#181818" points="298,238.9453,288,242.9453,298,246.9453,294,242.9453" style="stroke:#181818;stroke-width:1.0;"/><line style="stroke:#181818;stroke-width:1.0;" x1="292" x2="536.5" y1="242.9453" y2="242.9453"/><text fill="#000000" font-family="sans-serif" font-size="13" font-weight="bold" lengthAdjust="spacing" textLength="18" x="304" y="238.1904">7.4</text><text fill="#000000" font-family="sans-serif" font-size="13" lengthAdjust="spacing" textLength="104" x="326" y="238.1904">agencyRepository</text><polygon fill="#181818" points="645.5,267.4688,655.5,271.4688,645.5,275.4688,649.5,271.4688" style="stroke:#181818;stroke-width:1.0;"/><line style="stroke:#181818;stroke-width:1.0;" x1="287" x2="651.5" y1="271.4688" y2="271.4688"/><text fill="#000000" font-family="sans-serif" font-size="13" font-weight="bold" lengthAdjust="spacing" textLength="18" x="294" y="266.7139">7.5</text><text fill="#000000" font-family="sans-serif" font-size="13" lengthAdjust="spacing" textLength="229" x="316" y="266.7139">checkStoresLocation(stateAbbreviation)</text><polygon fill="#181818" points="298,295.9922,288,299.9922,298,303.9922,294,299.9922" style="stroke:#181818;stroke-width:1.0;"/><line style="stroke:#181818;stroke-width:1.0;stroke-dasharray:2.0,2.0;" x1="292" x2="661.5" y1="299.9922" y2="299.9922"/><text fill="#000000" font-family="sans-serif" font-size="13" font-weight="bold" lengthAdjust="spacing" textLength="18" x="304" y="295.2373">7.6</text><text fill="#000000" font-family="sans-serif" font-size="13" lengthAdjust="spacing" textLength="122" x="326" y="295.2373">location verified (true)</text><polygon fill="#181818" points="11,324.5156,1,328.5156,11,332.5156,7,328.5156" style="stroke:#181818;stroke-width:1.0;"/><line style="stroke:#181818;stroke-width:1.0;stroke-dasharray:2.0,2.0;" x1="5" x2="281" y1="328.5156" y2="328.5156"/><text fill="#000000" font-family="sans-serif" font-size="13" font-weight="bold" lengthAdjust="spacing" textLength="7" x="17" y="323.7607">8</text><text fill="#000000" font-family="sans-serif" font-size="13" lengthAdjust="spacing" textLength="122" x="28" y="323.7607">location verified (true)</text><line style="stroke:#000000;stroke-width:1.0;stroke-dasharray:2.0,2.0;" x1="3" x2="739" y1="337.5156" y2="337.5156"/><text fill="#000000" font-family="sans-serif" font-size="11" font-weight="bold" lengthAdjust="spacing" textLength="112" x="8" y="347.4736">[unsuccessful case]</text><polygon fill="#181818" points="265,367.3281,275,371.3281,265,375.3281,269,371.3281" style="stroke:#181818;stroke-width:1.0;"/><line style="stroke:#181818;stroke-width:1.0;" x1="0" x2="271" y1="371.3281" y2="371.3281"/><text fill="#000000" font-family="sans-serif" font-size="13" font-weight="bold" lengthAdjust="spacing" textLength="18" x="7" y="366.5732">7.1</text><text fill="#000000" font-family="sans-serif" font-size="13" lengthAdjust="spacing" textLength="229" x="29" y="366.5732">checkStoresLocation(stateAbbreviation)</text><polygon fill="#181818" points="413.5,395.8516,423.5,399.8516,413.5,403.8516,417.5,399.8516" style="stroke:#181818;stroke-width:1.0;"/><line style="stroke:#181818;stroke-width:1.0;" x1="287" x2="419.5" y1="399.8516" y2="399.8516"/><text fill="#000000" font-family="sans-serif" font-size="13" font-weight="bold" lengthAdjust="spacing" textLength="18" x="294" y="395.0967">7.2</text><text fill="#000000" font-family="sans-serif" font-size="13" lengthAdjust="spacing" textLength="75" x="316" y="395.0967">getInstance()</text><polygon fill="#181818" points="298,424.375,288,428.375,298,432.375,294,428.375" style="stroke:#181818;stroke-width:1.0;"/><line style="stroke:#181818;stroke-width:1.0;stroke-dasharray:2.0,2.0;" x1="292" x2="429.5" y1="428.375" y2="428.375"/><text fill="#000000" font-family="sans-serif" font-size="13" font-weight="bold" lengthAdjust="spacing" textLength="18" x="304" y="423.6201">7.3</text><text fill="#000000" font-family="sans-serif" font-size="13" lengthAdjust="spacing" textLength="67" x="326" y="423.6201">repositories</text><polygon fill="#181818" points="520.5,452.8984,530.5,456.8984,520.5,460.8984,524.5,456.8984" style="stroke:#181818;stroke-width:1.0;"/><line style="stroke:#181818;stroke-width:1.0;" x1="287" x2="526.5" y1="456.8984" y2="456.8984"/><text fill="#000000" font-family="sans-serif" font-size="13" font-weight="bold" lengthAdjust="spacing" textLength="18" x="294" y="452.1436">7.4</text><text fill="#000000" font-family="sans-serif" font-size="13" lengthAdjust="spacing" textLength="132" x="316" y="452.1436">getAgencyRepository()</text><polygon fill="#181818" points="298,481.4219,288,485.4219,298,489.4219,294,485.4219" style="stroke:#181818;stroke-width:1.0;"/><line style="stroke:#181818;stroke-width:1.0;" x1="292" x2="536.5" y1="485.4219" y2="485.4219"/><text fill="#000000" font-family="sans-serif" font-size="13" font-weight="bold" lengthAdjust="spacing" textLength="18" x="304" y="480.667">7.5</text><text fill="#000000" font-family="sans-serif" font-size="13" lengthAdjust="spacing" textLength="104" x="326" y="480.667">agencyRepository</text><polygon fill="#181818" points="645.5,509.9453,655.5,513.9453,645.5,517.9453,649.5,513.9453" style="stroke:#181818;stroke-width:1.0;"/><line style="stroke:#181818;stroke-width:1.0;" x1="287" x2="651.5" y1="513.9453" y2="513.9453"/><text fill="#000000" font-family="sans-serif" font-size="13" font-weight="bold" lengthAdjust="spacing" textLength="18" x="294" y="509.1904">7.6</text><text fill="#000000" font-family="sans-serif" font-size="13" lengthAdjust="spacing" textLength="229" x="316" y="509.1904">checkStoresLocation(stateAbbreviation)</text><polygon fill="#181818" points="298,538.4688,288,542.4688,298,546.4688,294,542.4688" style="stroke:#181818;stroke-width:1.0;"/><line style="stroke:#181818;stroke-width:1.0;stroke-dasharray:2.0,2.0;" x1="292" x2="661.5" y1="542.4688" y2="542.4688"/><text fill="#000000" font-family="sans-serif" font-size="13" font-weight="bold" lengthAdjust="spacing" textLength="18" x="304" y="537.7139">7.7</text><text fill="#000000" font-family="sans-serif" font-size="13" lengthAdjust="spacing" textLength="198" x="326" y="537.7139">location impossible to verify (false)</text><polygon fill="#181818" points="11,566.9922,1,570.9922,11,574.9922,7,570.9922" style="stroke:#181818;stroke-width:1.0;"/><line style="stroke:#181818;stroke-width:1.0;stroke-dasharray:2.0,2.0;" x1="5" x2="281" y1="570.9922" y2="570.9922"/><text fill="#000000" font-family="sans-serif" font-size="13" font-weight="bold" lengthAdjust="spacing" textLength="7" x="17" y="566.2373">8</text><text fill="#000000" font-family="sans-serif" font-size="13" lengthAdjust="spacing" textLength="142" x="28" y="566.2373">asks to submit new data</text><!--SRC=[jPKzRuCm48Pt_ufJfsH8fKwjegfIbQbIXuXqx7AO2x42Dh9DAlvz7QSW0qc0j6L2li_tV0-OlP05QimXLrBndLOvWTKbCTDO2kHxJ6bZgun04xSeqonqC3jCr9UGAMmnCyGObbR9Cez9C-PShE2YG6dXRhafY8jjzQuuMg7aIachLPQHlWCqiFg8tZi14HNA2Akq8EDzedNRGmSEdxBl7zhRaKwJv5KJKBderywHpz0z3FN18qkrAWjOxOZlOUFi1BKwXfa5Kt9EncpB33YwuInUl4nO0Z-6-0XJHyoCHKklSQpf8Fp9l5Ni_e51y22tuk02JeDhcSB7rtDre_KIKh9lqbMHd6Rpin5DKZVfYocZDIn-b2pR8pxddT2ef7MVOJxVSVS6XZflDNInNEW5ZPZkLWm96gvLo-gg6Bq15tNsD_DS_QvNS7FPJrKua1PRGGdCZl3tImQ2h-Bmr6_XUR6eD_wMSgVLzXxaFYvGoYvHVYHjI7e99rDtSURNKPkEssZafcCt0Rs_mEy617-9uMGK_mN76v0SYwN8dTM8sFruhJfHKy7C_sNdGn-cSPrSPpVarzs9sPjZ7wQCSs51qXSaQ76GNi-kJ5ZpyWq0]--></g></svg>