<?xml version="1.0" encoding="UTF-8" standalone="no"?><svg xmlns="http://www.w3.org/2000/svg" xmlns:xlink="http://www.w3.org/1999/xlink" contentStyleType="text/css" height="557px" preserveAspectRatio="none" style="width:312px;height:557px;background:#FFFFFF;" version="1.1" viewBox="0 0 312 557" width="312px" zoomAndPan="magnify"><defs/><g><rect fill="none" height="27.6094" id="_title" style="stroke:none;stroke-width:1.0;" width="294" x="5" y="10"/><text fill="#000000" font-family="sans-serif" font-size="14" font-weight="bold" lengthAdjust="spacing" textLength="284" x="10" y="29.5332">System Sequence Diagram (SSD) - US460</text><rect fill="#FFFFFF" height="334.8672" style="stroke:#181818;stroke-width:1.0;" width="10" x="20.75" y="131.2188"/><rect fill="#FFFFFF" height="30.3516" style="stroke:#181818;stroke-width:1.0;" width="10" x="259.75" y="153.5703"/><rect fill="#FFFFFF" height="30.3516" style="stroke:#181818;stroke-width:1.0;" width="10" x="259.75" y="214.2734"/><rect fill="#FFFFFF" height="30.3516" style="stroke:#181818;stroke-width:1.0;" width="10" x="259.75" y="274.9766"/><rect fill="#FFFFFF" height="30.3516" style="stroke:#181818;stroke-width:1.0;" width="10" x="259.75" y="335.6797"/><line style="stroke:#181818;stroke-width:0.5;stroke-dasharray:5.0,5.0;" x1="25.25" x2="25.25" y1="121.2188" y2="475.0859"/><line style="stroke:#181818;stroke-width:0.5;stroke-dasharray:5.0,5.0;" x1="264.75" x2="264.75" y1="121.2188" y2="475.0859"/><text fill="#000000" font-family="sans-serif" font-size="14" lengthAdjust="spacing" textLength="29" x="8.25" y="118.1426">User</text><ellipse cx="25.75" cy="52.1094" fill="#E2E2F0" rx="8" ry="8" style="stroke:#181818;stroke-width:0.5;"/><path d="M25.75,60.1094 L25.75,87.1094 M12.75,68.1094 L38.75,68.1094 M25.75,87.1094 L12.75,102.1094 M25.75,87.1094 L38.75,102.1094 " fill="none" style="stroke:#181818;stroke-width:0.5;"/><text fill="#000000" font-family="sans-serif" font-size="14" lengthAdjust="spacing" textLength="29" x="8.25" y="488.6191">User</text><ellipse cx="25.75" cy="500.1953" fill="#E2E2F0" rx="8" ry="8" style="stroke:#181818;stroke-width:0.5;"/><path d="M25.75,508.1953 L25.75,535.1953 M12.75,516.1953 L38.75,516.1953 M25.75,535.1953 L12.75,550.1953 M25.75,535.1953 L38.75,550.1953 " fill="none" style="stroke:#181818;stroke-width:0.5;"/><rect fill="#E2E2F0" height="31.6094" rx="2.5" ry="2.5" style="stroke:#181818;stroke-width:0.5;" width="64" x="232.75" y="88.6094"/><text fill="#000000" font-family="sans-serif" font-size="14" lengthAdjust="spacing" textLength="50" x="239.75" y="110.1426">:System</text><rect fill="#E2E2F0" height="31.6094" rx="2.5" ry="2.5" style="stroke:#181818;stroke-width:0.5;" width="64" x="232.75" y="474.0859"/><text fill="#000000" font-family="sans-serif" font-size="14" lengthAdjust="spacing" textLength="50" x="239.75" y="495.6191">:System</text><rect fill="#FFFFFF" height="334.8672" style="stroke:#181818;stroke-width:1.0;" width="10" x="20.75" y="131.2188"/><rect fill="#FFFFFF" height="30.3516" style="stroke:#181818;stroke-width:1.0;" width="10" x="259.75" y="153.5703"/><rect fill="#FFFFFF" height="30.3516" style="stroke:#181818;stroke-width:1.0;" width="10" x="259.75" y="214.2734"/><rect fill="#FFFFFF" height="30.3516" style="stroke:#181818;stroke-width:1.0;" width="10" x="259.75" y="274.9766"/><rect fill="#FFFFFF" height="30.3516" style="stroke:#181818;stroke-width:1.0;" width="10" x="259.75" y="335.6797"/><polygon fill="#181818" points="247.75,149.5703,257.75,153.5703,247.75,157.5703,251.75,153.5703" style="stroke:#181818;stroke-width:1.0;"/><line style="stroke:#181818;stroke-width:1.0;" x1="30.75" x2="253.75" y1="153.5703" y2="153.5703"/><text fill="#000000" font-family="sans-serif" font-size="13" font-weight="bold" lengthAdjust="spacing" textLength="7" x="37.75" y="148.7139">1</text><text fill="#000000" font-family="sans-serif" font-size="13" lengthAdjust="spacing" textLength="119" x="48.75" y="148.7139">Requisita uma tarefa</text><polygon fill="#181818" points="41.75,179.9219,31.75,183.9219,41.75,187.9219,37.75,183.9219" style="stroke:#181818;stroke-width:1.0;"/><line style="stroke:#181818;stroke-width:1.0;stroke-dasharray:2.0,2.0;" x1="35.75" x2="263.75" y1="183.9219" y2="183.9219"/><text fill="#000000" font-family="sans-serif" font-size="13" font-weight="bold" lengthAdjust="spacing" textLength="7" x="47.75" y="179.0654">2</text><text fill="#000000" font-family="sans-serif" font-size="13" lengthAdjust="spacing" textLength="114" x="58.75" y="179.0654">Pede o ponto inicial</text><polygon fill="#181818" points="247.75,210.2734,257.75,214.2734,247.75,218.2734,251.75,214.2734" style="stroke:#181818;stroke-width:1.0;"/><line style="stroke:#181818;stroke-width:1.0;" x1="30.75" x2="253.75" y1="214.2734" y2="214.2734"/><text fill="#000000" font-family="sans-serif" font-size="13" font-weight="bold" lengthAdjust="spacing" textLength="7" x="37.75" y="209.417">3</text><text fill="#000000" font-family="sans-serif" font-size="13" lengthAdjust="spacing" textLength="126" x="48.75" y="209.417">Informa o ponto inicial</text><polygon fill="#181818" points="41.75,240.625,31.75,244.625,41.75,248.625,37.75,244.625" style="stroke:#181818;stroke-width:1.0;"/><line style="stroke:#181818;stroke-width:1.0;stroke-dasharray:2.0,2.0;" x1="35.75" x2="263.75" y1="244.625" y2="244.625"/><text fill="#000000" font-family="sans-serif" font-size="13" font-weight="bold" lengthAdjust="spacing" textLength="7" x="47.75" y="239.7686">4</text><text fill="#000000" font-family="sans-serif" font-size="13" lengthAdjust="spacing" textLength="104" x="58.75" y="239.7686">Pede o ponto final</text><polygon fill="#181818" points="247.75,270.9766,257.75,274.9766,247.75,278.9766,251.75,274.9766" style="stroke:#181818;stroke-width:1.0;"/><line style="stroke:#181818;stroke-width:1.0;" x1="30.75" x2="253.75" y1="274.9766" y2="274.9766"/><text fill="#000000" font-family="sans-serif" font-size="13" font-weight="bold" lengthAdjust="spacing" textLength="7" x="37.75" y="270.1201">5</text><text fill="#000000" font-family="sans-serif" font-size="13" lengthAdjust="spacing" textLength="116" x="48.75" y="270.1201">Informa o ponto final</text><polygon fill="#181818" points="41.75,301.3281,31.75,305.3281,41.75,309.3281,37.75,305.3281" style="stroke:#181818;stroke-width:1.0;"/><line style="stroke:#181818;stroke-width:1.0;stroke-dasharray:2.0,2.0;" x1="35.75" x2="263.75" y1="305.3281" y2="305.3281"/><text fill="#000000" font-family="sans-serif" font-size="13" font-weight="bold" lengthAdjust="spacing" textLength="7" x="47.75" y="300.4717">6</text><text fill="#000000" font-family="sans-serif" font-size="13" lengthAdjust="spacing" textLength="120" x="58.75" y="300.4717">Pede o tipo de tarefa</text><polygon fill="#181818" points="247.75,331.6797,257.75,335.6797,247.75,339.6797,251.75,335.6797" style="stroke:#181818;stroke-width:1.0;"/><line style="stroke:#181818;stroke-width:1.0;" x1="30.75" x2="253.75" y1="335.6797" y2="335.6797"/><text fill="#000000" font-family="sans-serif" font-size="13" font-weight="bold" lengthAdjust="spacing" textLength="7" x="37.75" y="330.8232">7</text><text fill="#000000" font-family="sans-serif" font-size="13" lengthAdjust="spacing" textLength="132" x="48.75" y="330.8232">Informa o tipo de tarefa</text><polygon fill="#181818" points="41.75,362.0313,31.75,366.0313,41.75,370.0313,37.75,366.0313" style="stroke:#181818;stroke-width:1.0;"/><line style="stroke:#181818;stroke-width:1.0;stroke-dasharray:2.0,2.0;" x1="35.75" x2="263.75" y1="366.0313" y2="366.0313"/><text fill="#000000" font-family="sans-serif" font-size="13" font-weight="bold" lengthAdjust="spacing" textLength="7" x="47.75" y="361.1748">8</text><text fill="#000000" font-family="sans-serif" font-size="13" lengthAdjust="spacing" textLength="155" x="58.75" y="361.1748">Pede a descrição da tarefa</text><polygon fill="#181818" points="252.75,392.3828,262.75,396.3828,252.75,400.3828,256.75,396.3828" style="stroke:#181818;stroke-width:1.0;"/><line style="stroke:#181818;stroke-width:1.0;" x1="30.75" x2="258.75" y1="396.3828" y2="396.3828"/><text fill="#000000" font-family="sans-serif" font-size="13" font-weight="bold" lengthAdjust="spacing" textLength="7" x="37.75" y="391.5264">9</text><text fill="#000000" font-family="sans-serif" font-size="13" lengthAdjust="spacing" textLength="167" x="48.75" y="391.5264">Informa a descrição da tarefa</text><polygon fill="#181818" points="41.75,422.7344,31.75,426.7344,41.75,430.7344,37.75,426.7344" style="stroke:#181818;stroke-width:1.0;"/><line style="stroke:#181818;stroke-width:1.0;stroke-dasharray:2.0,2.0;" x1="35.75" x2="263.75" y1="426.7344" y2="426.7344"/><text fill="#000000" font-family="sans-serif" font-size="13" font-weight="bold" lengthAdjust="spacing" textLength="14" x="47.75" y="421.8779">10</text><text fill="#000000" font-family="sans-serif" font-size="13" lengthAdjust="spacing" textLength="180" x="65.75" y="421.8779">Pede as restantes informações</text><polygon fill="#181818" points="252.75,453.0859,262.75,457.0859,252.75,461.0859,256.75,457.0859" style="stroke:#181818;stroke-width:1.0;"/><line style="stroke:#181818;stroke-width:1.0;" x1="30.75" x2="258.75" y1="457.0859" y2="457.0859"/><text fill="#000000" font-family="sans-serif" font-size="13" font-weight="bold" lengthAdjust="spacing" textLength="14" x="37.75" y="452.2295">11</text><text fill="#000000" font-family="sans-serif" font-size="13" lengthAdjust="spacing" textLength="192" x="55.75" y="452.2295">Informa as restantes informações</text><!--MD5=[8e15f85d6fdd7bbafc52c5c14d5f3b13]
@startuml
skinparam packageStyle rectangle
skinparam shadowing false

title System Sequence Diagram (SSD) - US460

autonumber

actor "User" as Admin
participant ":System" as System

activate Admin

        Admin -> System : Requisita uma tarefa
    activate System

        System - -> Admin : Pede o ponto inicial
    deactivate System
    
            Admin -> System : Informa o ponto inicial
        activate System
            
                System - -> Admin : Pede o ponto final
            deactivate System
            
                    Admin -> System : Informa o ponto final
                activate System
                    
                        System - -> Admin : Pede o tipo de tarefa
                    deactivate System
                    
                            Admin -> System : Informa o tipo de tarefa
                        activate System
                        System - -> Admin : Pede a descrição da tarefa
                        deactivate System
                        Admin -> System : Informa a descrição da tarefa
                            
                                System - -> Admin : Pede as restantes informações
                            deactivate System
                            
                                    Admin -> System : Informa as restantes informações

@enduml

PlantUML version 1.2022.7(Mon Aug 22 18:01:30 BST 2022)
(GPL source distribution)
Java Runtime: Java(TM) SE Runtime Environment
JVM: Java HotSpot(TM) 64-Bit Server VM
Default Encoding: Cp1252
Language: pt
Country: PT
--></g></svg>